<svg width="80" height="80" viewBox="0 0 80 80" fill="none" xmlns="http://www.w3.org/2000/svg">
<g clip-path="url(#clip0_106_73)">
<path d="M8.07404 53.7257C8.07404 53.7257 11.9039 51.8676 24.6116 58.4448C38.0297 65.3897 41.9319 73.5828 41.9319 73.5828C41.9319 73.5828 27.839 76.248 19.4964 67.7656C11.1538 59.2831 8.07404 53.7257 8.07404 53.7257Z" fill="url(#paint0_linear_106_73)"/>
<path d="M61.4263 38.7249C61.4263 38.7249 66.3069 40.1496 68.3674 40.9979C70.4278 41.8462 72.7447 45.0881 72.8353 46.8983C72.926 48.7085 69.7789 46.0207 67.0918 45.6966C64.4047 45.3725 57.2692 44.7117 57.1849 44.3562C57.1005 44.0007 61.4263 38.7249 61.4263 38.7249Z" fill="url(#paint1_linear_106_73)"/>
<path d="M62.9696 46.2717C65.6246 47.4643 63.0407 51.8598 60.3438 53.4246C57.647 54.9894 54.7962 57.6807 52.7894 60.4556C50.7827 63.2305 48.0295 63.6799 46.4079 61.3033C44.7863 58.9268 43.3606 64.6433 43.7217 64.8141C44.0828 64.9849 45.9919 67.0871 48.2747 67.5988C50.5575 68.1104 56.5806 64.5841 61.7261 59.4435C66.8716 54.3029 70.632 52.3574 69.2631 50.4476C67.8941 48.5377 64.7205 46.9736 64.7205 46.9736L62.9696 46.2717Z" fill="url(#paint2_linear_106_73)"/>
<path d="M73.6252 51.513C73.3324 53.338 72.55 55.088 71.1226 56.6484C70.5411 57.2836 69.8479 57.8863 69.0415 58.4522C65.9857 60.5898 62.2141 62.5096 58.8853 64.8736C57.2866 65.9954 55.7884 67.2263 54.5138 68.6226C50.5738 72.9488 44.1029 71.145 42.6768 66.683C42.3175 65.5357 42.3713 64.6684 42.6599 63.9936C43.4875 62.0371 46.2448 61.8121 46.2448 61.8121C46.2448 61.8121 48.579 68.0878 52.6534 62.9481C53.1429 62.3285 53.6098 61.7796 54.0597 61.283C57.3489 57.6557 59.7737 56.9087 64.1749 52.9998C69.1802 48.5505 64.165 45.5414 57.3107 49.6243C50.4606 53.7015 61.6482 42.5861 61.6482 42.5861C61.9184 42.5253 62.2028 42.4701 62.49 42.4234C66.6068 41.7429 72.427 42.6328 73.3748 46.618C73.7639 48.2563 73.8827 49.9143 73.6252 51.513Z" fill="url(#paint3_linear_106_73)"/>
<path d="M73.6252 51.513C73.3324 53.3379 72.55 55.088 71.1226 56.6484C70.5411 57.2836 69.8479 57.8863 69.0415 58.4522C65.9857 60.5898 62.2141 62.5096 58.8853 64.8736C57.2866 65.9954 55.7884 67.2262 54.5138 68.6226C50.5738 72.9488 44.1029 71.145 42.6768 66.683C42.3175 65.5357 42.3713 64.6684 42.6599 63.9936C43.4875 62.0371 46.2448 61.8121 46.2448 61.8121C46.2448 61.8121 48.579 68.0878 52.6534 62.9481C53.1429 62.3285 53.6098 61.7796 54.0597 61.283C56.0049 60.4554 58.243 58.8935 60.1415 57.9004C64.1975 55.7783 63.4902 57.3345 63.3487 58.844C63.2299 60.1173 69.9003 57.3246 73.6252 51.513Z" fill="url(#paint4_linear_106_73)"/>
<path d="M58.8851 64.8737C57.2863 65.9959 55.7879 67.2263 54.5137 68.6232C50.5745 72.9483 44.1031 71.1448 42.6763 66.6828C42.3174 65.536 42.3719 64.668 42.6604 63.994C42.9873 64.3759 43.2673 64.8567 43.4826 65.4585C45.6846 71.6126 51.6275 70.2575 54.0043 68.1627C55.3054 67.0132 57.3301 65.7592 58.8851 64.8737Z" fill="url(#paint5_linear_106_73)"/>
<path d="M71.122 56.649C71.7952 55.6419 72.3574 54.5975 72.577 53.7167C73.2577 50.9483 74.1186 46.0535 70.0716 44.3287C67.8981 43.3992 64.8465 42.789 62.4893 42.424C66.6062 41.7429 72.4266 42.6325 73.3744 46.618C74.2076 50.1251 73.8022 53.7205 71.122 56.649Z" fill="url(#paint6_linear_106_73)"/>
<path d="M38.2849 73.1654C38.2849 73.1654 29.932 74.009 20.021 68.8136C17.8576 67.6801 16.1862 66.4739 14.8931 65.2677C10.2599 60.9532 10.4821 56.6635 10.3484 55.9072C10.261 55.4457 13.4666 45.8229 16.8307 35.9222C18.2293 31.806 19.656 27.6398 20.883 24.0646C22.4545 19.4925 23.7016 15.8857 24.154 14.5782C24.2725 14.2323 24.3374 14.0472 24.3374 14.0472L24.683 14.2372L27.2828 15.6676L44.0086 24.8806L56.3895 31.6992L68.0993 38.1541L63.9898 42.9798L63.7556 43.2545L40.0561 71.0865L38.5782 72.8183L38.2849 73.1654Z" fill="url(#paint7_linear_106_73)"/>
<path d="M38.2848 73.1654C38.2848 73.1654 29.932 74.009 20.0209 68.8136C17.8576 67.6801 16.1861 66.4739 14.8931 65.2677C20.5506 63.4566 27.291 56.941 27.3419 58.4665C27.4059 60.4042 28.6464 60.6984 31.2711 58.4032C33.894 56.1079 35.908 53.8782 34.1439 58.0019C32.3798 62.1255 30.9426 63.9859 33.108 62.0715C35.2744 60.1564 34.9153 60.1236 39.4664 55.2287C44.0168 50.3328 50.158 40.5732 50.0049 40.9214C49.8536 41.2697 43.8734 56.5361 41.6626 59.5933C39.4527 62.6496 36.328 68.4605 39.0703 66.8405C41.8136 65.2197 45.363 58.7234 48.8579 54.1539C52.3528 49.5845 60.407 47.3023 63.304 42.6782C63.304 42.6782 63.5846 42.798 63.9898 42.9798L63.7556 43.2545L40.0561 71.0865L38.5781 72.8183L38.2848 73.1654Z" fill="url(#paint8_linear_106_73)"/>
<path d="M30.1644 42.4328C30.1644 42.4328 32.2642 36.325 35.2935 34.7912C38.3228 33.2574 38.938 36.294 38.2566 38.4018C38.2566 38.4018 38.1859 35.7489 36.9671 35.4565C35.7484 35.1641 33.5098 36.0936 30.1644 42.4328Z" fill="url(#paint9_linear_106_73)"/>
<path d="M35.9484 43.1486C35.9484 43.1486 34.9534 44.9187 33.468 45.8573C31.9826 46.7958 32.0004 44.6897 32.0004 44.6897C32.0004 44.6897 31.2755 46.556 32.6842 46.7805C34.0929 47.0049 35.9484 43.1486 35.9484 43.1486Z" fill="url(#paint10_linear_106_73)"/>
<path d="M31.3765 52.3477C31.3765 52.3477 30.5229 52.8732 29.1967 52.5259C29.1967 52.5259 23.8936 61.781 23.1223 61.8011L28.8802 51.2824L31.3765 52.3477Z" fill="url(#paint11_linear_106_73)"/>
<path d="M28.5599 45.1201C28.5599 45.1201 27.6153 46.7086 27.3618 48.164C27.1083 49.6195 27.8043 50.9202 27.8043 50.9202C27.8043 50.9202 23.8264 59.6249 23.8208 60.0166C23.8152 60.4084 28.6913 50.624 28.6913 50.624L28.5599 45.1201Z" fill="url(#paint12_linear_106_73)"/>
<path d="M38.0926 46.5558C38.0926 46.5558 37.0099 49.9875 33.6464 52.3737C33.6464 52.3737 28.3578 62.9579 27.1372 64.1817C25.9165 65.4056 25.4923 64.8464 25.4923 64.8464L33.2182 51.3615L38.0926 46.5558Z" fill="url(#paint13_linear_106_73)"/>
<path d="M10.3484 55.907C10.1681 54.9431 24.3372 14.0478 24.3372 14.0478L27.2823 15.668C25.2728 19.0198 22.7158 25.6271 20.9409 30.1805C18.725 35.8584 10.3484 55.907 10.3484 55.907Z" fill="url(#paint14_linear_106_73)"/>
<path d="M40.8753 26.2592C36.2561 28.619 30.7879 34.175 28.2827 38.6709C25.7776 43.1667 19.5075 55.8231 19.0401 57.2116C18.5727 58.6001 16.5067 62.1675 16.8005 63.3479C17.0943 64.5283 13.9389 63.7933 16.3739 57.8441C18.809 51.895 28.083 31.2862 28.701 29.7795C29.3189 28.2729 30.9039 23.7206 31.1235 23.2563C31.3431 22.7921 40.8753 26.2592 40.8753 26.2592Z" fill="url(#paint15_linear_106_73)"/>
<path d="M61.0618 37.227C57.6104 38.719 55.5026 40.373 53.469 43.6717C51.4354 46.9704 48.259 52.285 46.124 56.1984C43.989 60.1119 39.3426 64.7312 37.9269 66.5232C36.5112 68.3153 35.8567 69.8993 35.8567 69.8993C35.8567 69.8993 34.1838 70.4336 34.2727 69.2448C34.3616 68.056 50.5456 43.0465 51.0214 42.0407C51.4971 41.0348 54.3723 35.9566 54.3723 35.9566L61.0618 37.227Z" fill="url(#paint16_linear_106_73)"/>
<path d="M39.98 33.7571C39.98 33.7571 40.0267 39.3968 37.0553 44.7451C34.0838 50.0935 30.2599 50.3047 29.3768 48.4352C28.4936 46.5658 29.6396 42.9419 29.6396 42.9419C29.6396 42.9419 27.4948 46.409 27.6314 47.9884C27.768 49.5679 28.127 50.8107 28.127 50.8107C28.127 50.8107 23.2757 60.067 23.1178 61.6018C22.9599 63.1367 29.0314 51.9012 29.0314 51.9012C29.7651 52.1812 30.5358 52.3598 31.3766 52.3477C31.3766 52.3477 26.2084 62.8743 25.5863 64.1896C24.9642 65.5049 26.4541 65.3574 28.036 62.4132C29.6179 59.4689 33.3913 51.6911 33.3913 51.6911C33.3913 51.6911 37.0204 50.1569 39.5758 43.2863C42.1311 36.4156 39.98 33.7571 39.98 33.7571Z" fill="url(#paint17_linear_106_73)"/>
<path d="M66.2172 37.1204L56.3896 31.6996L56.0803 32.9621C54.4935 33.3705 52.6246 34.3271 52.5928 35.115C52.5447 36.4177 44.6439 51.3287 42.5398 54.9766C40.4357 58.6245 33.5356 67.192 32.915 68.5042C32.2914 69.8226 29.0391 69.7007 24.9778 67.8783C24.4582 67.6476 23.7249 67.3084 23.0473 66.9955C21.6331 66.3342 20.6894 66.0394 19.8097 64.7446C19.5724 64.3976 19.4159 64.1039 19.4086 63.9111C19.366 62.9442 21.6906 57.6131 21.9903 56.0506C22.2838 54.4852 22.0795 54.3886 21.0552 56.4263C21.0552 56.4263 18.8673 61.7085 18.2974 62.257C18.1714 62.3792 17.9695 62.3897 17.7357 62.3397C17.1014 62.1912 16.6504 61.5916 16.6392 60.9425C16.6326 60.7803 16.6443 60.6116 16.6588 60.4367C17.0354 56.6459 25.9459 38.6071 28.3187 33.3821C30.6948 28.1662 33.4446 24.3542 33.4463 22.7492C33.4509 21.1381 30.3226 18.1436 29.2844 23.3333C28.9256 25.1329 26.5869 33.0402 24.4644 37.5277C22.342 42.0152 15.0445 56.6435 14.1271 58.391C13.2097 60.1385 11.4363 57.338 10.3484 55.9069C10.5196 56.8741 10.1066 63.6244 20.0211 68.8136C28.1666 73.0828 35.2643 73.2737 37.5294 73.2089C38.0221 73.192 38.2849 73.1648 38.2849 73.1648L38.5775 72.8184L40.0558 71.0863L68.099 38.1543L66.2172 37.1204ZM38.1929 71.1974C37.4868 71.121 36.7529 70.8951 36.0986 70.3887C33.8775 68.6792 40.2741 63.5622 41.4452 61.0864C42.6162 58.6105 53.4115 41.1829 54.9076 39.4289C55.3796 38.8795 55.924 38.1448 56.4459 37.3615C61.4034 39.9638 61.9433 41.5446 60.4173 44.5949C58.7709 47.8836 49.935 57.1488 47.8914 60.0603C46.2312 62.4336 40.9573 68.892 38.1929 71.1974Z" fill="url(#paint18_linear_106_73)"/>
<path d="M68.099 38.1543L40.0558 71.0863L38.5776 72.8184L38.285 73.1648C38.285 73.1648 38.0222 73.192 37.5294 73.2089C37.5825 73.1128 37.6267 73.0353 37.6501 72.9857C37.8434 72.5772 59.5702 47.3148 61.2374 45.2631C62.5945 43.5948 65.2196 39.6782 66.2172 37.1204L68.099 38.1543Z" fill="url(#paint19_linear_106_73)"/>
<path d="M63.7556 43.2545C59.4494 43.2634 52.1872 42.3426 41.9918 37.9233C32.7942 33.9372 25.6281 28.422 20.883 24.0646C22.8689 18.2847 24.3374 14.0472 24.3374 14.0472L27.2828 15.6676L56.3895 31.6992L68.0992 38.1541L63.7556 43.2545Z" fill="url(#paint20_linear_106_73)"/>
<path d="M58.5851 39.5019C56.5598 39.0283 54.2295 38.3657 51.5351 37.4472C50.1533 36.9753 48.6675 36.4323 47.0858 35.82C44.788 34.9295 42.668 33.9657 40.7234 32.9554C34.7535 29.8667 30.3834 26.3602 27.2766 23.2549C24.2798 20.2539 22.4673 17.6171 21.5326 16.0843C20.9874 15.1745 20.7429 14.6498 20.7429 14.6498C20.7429 14.6498 20.7984 14.5173 20.8964 14.2764C21.587 12.6411 24.3593 6.09018 25.0154 5.40774C25.0154 5.40774 25.0187 5.40171 25.0247 5.40498C25.4829 5.49296 40.9426 8.21466 52.2765 14.0369C58.4153 17.1989 64.3889 21.834 68.624 25.4813C68.6953 25.543 68.7676 25.6039 68.8381 25.6647C72.3098 28.6602 74.5627 30.9352 74.6976 31.0733C74.7014 31.0818 74.7014 31.0818 74.7014 31.0818L71.3601 38.6889L71.0865 39.3166C71.0865 39.3166 68.8117 41.8845 58.5851 39.5019Z" fill="url(#paint21_linear_106_73)"/>
<path opacity="0.6" d="M58.5851 39.5019C56.5598 39.0283 54.2295 38.3657 51.5351 37.4472C50.1533 36.9753 48.6675 36.4323 47.0858 35.82C44.788 34.9295 42.668 33.9657 40.7234 32.9554C41.6897 31.2149 42.829 29.1263 43.3967 27.9253C44.4948 25.6039 44.3242 22.9703 44.396 19.2173C44.396 19.2173 47.2254 20.7601 50.8406 22.7584C54.6195 24.8378 62.7485 25.4647 68.8381 25.6647C72.3098 28.6602 74.5627 30.9352 74.6976 31.0733C74.7014 31.0818 74.7014 31.0818 74.7014 31.0818L71.3601 38.6889L71.0865 39.3166C71.0865 39.3166 68.8117 41.8845 58.5851 39.5019Z" fill="url(#paint22_linear_106_73)"/>
<path opacity="0.6" d="M62.0647 40.1798C61.0236 40.0214 59.8669 39.8 58.5851 39.5019C56.5598 39.0283 54.2295 38.3657 51.5351 37.4472C53.3828 37.4963 54.9606 37.4765 55.1669 37.2799C55.6948 36.7722 57.3148 33.9399 57.4827 32.7848C57.6473 31.6356 57.9673 30.5595 55.6102 29.536C53.254 28.5116 48.9599 24.5883 48.7247 24.4772L50.8406 22.7584L53.6506 20.4666C53.6506 20.4666 61.6352 22.8347 68.624 25.4813C69.116 25.9028 69.5839 26.3112 70.0261 26.7028C72.8171 29.1718 74.5793 30.9512 74.6976 31.0733C74.7014 31.0818 74.7014 31.0818 74.7014 31.0818L71.0865 39.3166C71.0865 39.3166 69.3465 41.2816 62.0647 40.1798Z" fill="url(#paint23_linear_106_73)"/>
<path opacity="0.6" d="M62.0646 40.1798L62.0543 40.1734C63.6719 36.3858 67.444 28.3917 66.389 26.4913C66.389 26.4913 68.0377 26.5286 70.0233 26.7034C70.0233 26.7034 70.0243 26.7026 70.0261 26.7028C72.8171 29.1718 74.5793 30.9512 74.6976 31.0733C74.7013 31.0818 74.7013 31.0818 74.7013 31.0818L71.0864 39.3166C71.0864 39.3166 69.3465 41.2816 62.0646 40.1798Z" fill="url(#paint24_linear_106_73)"/>
<path opacity="0.6" d="M36.1166 16.1027C31.7118 15.663 30.3784 14.9509 29.4902 15.2276C28.6048 15.4981 27.8485 18.1701 27.1484 20.0507C26.897 20.7423 27.0189 21.9739 27.2766 23.2547C24.2799 20.2543 22.4672 17.617 21.5333 16.0845C22.7299 13.3784 25.4437 7.64061 26.0087 6.44601C26.0087 6.44601 40.5122 16.5457 36.1166 16.1027Z" fill="url(#paint25_linear_106_73)"/>
<path d="M74.6987 31.0807C74.6987 31.0807 63.6219 32.3311 49.128 25.7823C47.8621 25.2105 46.5691 24.5784 45.255 23.8809C28.9085 15.2031 25.0128 5.40661 25.0128 5.40661C25.0128 5.40661 25.0161 5.40057 25.0221 5.40383C25.3895 5.47448 35.3662 7.23229 45.1472 10.9167C47.5853 11.8363 50.0118 12.8734 52.2739 14.0358C63.6175 19.8716 74.3983 30.7717 74.696 31.0714C74.6987 31.0807 74.6987 31.0807 74.6987 31.0807Z" fill="url(#paint26_linear_106_73)"/>
<path d="M74.6987 31.0807C74.6987 31.0807 63.6219 32.3311 49.1279 25.7823C52.3776 26.8457 57.0511 28.3277 60.4297 29.1991C66.1344 30.6703 72.6233 30.244 72.6233 30.244C72.6233 30.244 64.6273 22.3854 58.5154 18.4329C54.962 16.1342 49.3056 13.0633 45.1472 10.9167C47.5853 11.8363 50.0118 12.8734 52.2739 14.0358C63.6174 19.8716 74.3983 30.7717 74.6959 31.0714C74.6987 31.0807 74.6987 31.0807 74.6987 31.0807Z" fill="url(#paint27_linear_106_73)"/>
<path opacity="0.6" d="M51.0496 15.8911C51.0496 15.8911 37.9416 9.97543 30.605 8.87238C30.605 8.87238 37.1679 16.6157 47.4258 21.7514C57.6836 26.8872 68.5256 28.3858 68.5256 28.3858C68.5256 28.3858 60.2567 20.2459 51.0496 15.8911Z" fill="url(#paint28_linear_106_73)"/>
<path d="M36.7003 19.4232C35.451 18.3273 34.0347 17.4523 32.9243 19.1994C31.8139 20.9465 30.3481 23.9457 31.1343 24.8856C31.9206 25.8256 35.0363 28.246 35.822 28.2863C36.6078 28.3265 38.1934 24.6739 39.035 22.8944C39.8767 21.1149 38.8081 21.2722 36.7003 19.4232Z" fill="url(#paint29_linear_106_73)"/>
<path d="M71.0862 39.3172C71.0862 39.3172 68.8115 41.8846 58.5847 39.5017C56.559 39.0283 54.229 38.3656 51.5351 37.4474C50.1526 36.9753 48.6675 36.432 47.086 35.8203C44.7878 34.9303 42.6687 33.9658 40.7231 32.9548C34.7536 29.8662 30.3828 26.3599 27.2766 23.2547C24.2799 20.2543 22.4672 17.617 21.5333 16.0845C20.9866 15.1746 20.7424 14.6501 20.7424 14.6501C20.7424 14.6501 20.7977 14.5171 20.8965 14.2761C23.5781 18.1348 29.8961 25.5313 37.0058 29.6363C46.0791 34.8745 51.6598 36.287 56.3614 37.5563C61.0048 38.8209 67.9816 40.0681 71.3604 38.6895L71.0862 39.3172Z" fill="url(#paint30_linear_106_73)"/>
<path d="M53.4452 26.2814L55.3118 28.2061L50.9105 34.3742L54.5181 28.0322L53.4452 26.2814Z" fill="url(#paint31_linear_106_73)"/>
<path d="M53.845 27.6969L50.9105 34.3742L54.8594 28.0532L53.4452 26.2814L53.845 27.6969Z" fill="url(#paint32_linear_106_73)"/>
<path d="M70.6812 29.7121L72.149 31.1762L68.5256 39.5444L71.3604 31.1762L70.6812 29.7121Z" fill="url(#paint33_linear_106_73)"/>
<path d="M70.6812 29.7121L72.5322 31.1755L68.5256 39.5444L72.149 31.1762L70.6812 29.7121Z" fill="url(#paint34_linear_106_73)"/>
<path opacity="0.6" d="M44.0086 24.8806C43.4421 26.0293 41.3668 29.833 37.9857 31.5685C35.4445 29.8338 27.5537 24.2054 22.9091 18.1816C23.4886 16.5027 23.9241 15.2425 24.154 14.5782C24.3271 14.4573 24.5041 14.3431 24.683 14.2372C34.1223 8.61155 49.2555 22.688 49.2555 22.688C49.2555 22.688 47.8227 26.1475 44.1667 24.5465C44.1667 24.5465 44.1139 24.6684 44.0086 24.8806Z" fill="url(#paint35_linear_106_73)"/>
<path d="M37.9857 31.5685C37.015 32.0665 35.9369 32.3936 34.7568 32.4389C34.7568 32.4389 28.9933 36.7407 25.6307 34.5635C22.3264 32.4225 22.1333 30.3617 22.128 30.2915C22.0967 30.3955 20.773 34.7829 16.8307 35.9222C18.2293 31.806 19.656 27.6398 20.883 24.0646C21.6548 21.8176 22.3491 19.8043 22.909 18.1816C27.5537 24.2054 35.4445 29.8339 37.9857 31.5685Z" fill="url(#paint36_linear_106_73)"/>
<path d="M64.5672 27.4C62.8841 28.1188 56.9939 25.9255 53.1038 24.3131C51.0257 23.4483 49.5168 22.7516 49.5168 22.7516C49.5168 22.7516 49.5168 22.7516 48.2722 23.6363C47.0277 24.5211 44.111 22.9761 44.111 22.9761C44.111 22.9761 40.754 33.2497 32.4299 33.1918C24.3758 33.1412 24.0369 25.9817 24.0218 25.5411C24.0166 25.5289 24.0201 25.5202 24.0201 25.5202C20.2412 32.0875 16.0741 28.0193 15.5405 31.2106C15.1472 33.6499 12.322 36.8104 10.1802 36.6073C9.50987 36.5403 8.90609 36.1564 8.46658 35.3129C6.59564 31.7928 9.6669 26.9625 9.6669 26.9625C9.6669 26.9625 7.36525 23.8859 7.94425 20.5813C8.50584 17.2698 12.1479 15.4478 12.1479 15.4478C12.1479 15.4478 10.3981 10.2845 13.1857 7.52733C16.0392 4.70493 21.4331 4.90679 21.4331 4.90679C21.4331 4.90679 24.5152 -0.623852 29.1906 0.0582836C32.3114 0.513596 33.9916 2.87526 33.9916 2.87526C33.9916 2.87526 36.4174 1.56537 40.1109 4.3217C43.8114 7.0606 42.8917 11.2389 42.8917 11.2389C45.8065 11.53 46.0233 13.5069 46.0233 13.5069C50.3325 12.842 52.9529 18.5731 52.9529 18.5731C52.9529 18.5731 56.4469 18.0761 58.7656 21.4123C58.7656 21.4123 67.1617 26.2993 64.5672 27.4Z" fill="url(#paint37_linear_106_73)"/>
<path d="M24.0201 25.5202C20.2412 32.0875 16.074 28.0193 15.5405 31.2106C15.1472 33.6499 12.322 36.8104 10.1802 36.6073C13.3104 33.3166 13.7691 27.4677 13.7691 27.4677C19.7495 28.6057 21.9055 20.5683 21.9055 20.5683C21.0312 24.6334 24.0201 25.5202 24.0201 25.5202Z" fill="url(#paint38_linear_106_73)"/>
<path d="M53.1038 24.3131C51.0257 23.4484 49.5167 22.7516 49.5167 22.7516C49.5167 22.7516 49.5167 22.7516 48.2722 23.6363C47.0276 24.5211 44.111 22.9761 44.111 22.9761C44.111 22.9761 40.754 33.2497 32.4299 33.1918C24.3758 33.1412 24.0369 25.9817 24.0218 25.5411C24.0841 25.839 24.8219 28.9345 28.857 30.1605C33.094 31.4373 34.2313 27.3464 34.2313 27.3464C38.071 26.1899 38.665 20.7086 38.665 20.7086C42.1091 22.4249 43.6311 18.4076 43.6311 18.4076C43.6311 18.4076 45.0281 20.8179 46.4578 20.8058C47.8998 20.7885 50.1232 18.397 50.1232 18.397C50.1232 18.397 51.0081 22.2589 53.1038 24.3131Z" fill="url(#paint39_linear_106_73)"/>
<path d="M13.9377 15.8141C13.9377 15.8141 16.092 17.7894 18.9539 15.4857C18.9539 15.4857 20.6643 17.0988 23.091 14.6204C23.091 14.6204 18.8696 21.5684 13.9377 15.8141Z" fill="url(#paint40_linear_106_73)"/>
<path d="M26.9155 8.66096C26.9155 8.66096 27.7671 12.203 31.9909 11.541C31.9909 11.541 34.4949 15.9991 40.0416 13.9313C40.0416 13.9313 38.8899 17.0059 34.4949 15.9991C34.4949 15.9991 31.1751 13.9925 28.8928 16.9499C28.8928 16.9499 28.5535 15.3359 30.6237 13.8974C30.6237 13.8974 25.9643 11.9213 26.9155 8.66096Z" fill="url(#paint41_linear_106_73)"/>
<path d="M38.6806 79.3845L38.922 78.9513L41.9336 73.5835C41.9336 73.5835 41.9336 73.5834 41.9332 73.5824C41.9327 73.5826 41.9319 73.5828 41.9319 73.5828L39.4449 72.0689C39.4449 72.0689 32.9066 72.7542 22.9656 67.074C13.3796 61.5968 10.3847 55.0564 10.3847 55.0564L8.07559 53.7266C8.07176 53.7244 8.06962 53.7287 8.06962 53.7287C7.64118 54.2254 5.8367 58.9046 5.39641 60.0486C5.33417 60.2164 5.29895 60.3086 5.29895 60.3086C5.29895 60.3086 5.44959 60.6792 5.7863 61.3229C6.36304 62.4065 7.48184 64.2715 9.34258 66.4141C11.276 68.6362 14.0188 71.1813 17.8348 73.5194C19.0894 74.2911 20.4676 75.0418 21.9748 75.7542C23.018 76.2468 24.0034 76.6893 24.9248 77.0798C26.7325 77.8446 28.3135 78.4198 29.7018 78.8521C36.8603 81.075 38.6806 79.3845 38.6806 79.3845Z" fill="url(#paint42_linear_106_73)"/>
<path opacity="0.6" d="M38.6806 79.3845L38.9221 78.9513L41.9336 73.5835C41.9336 73.5835 41.9336 73.5834 41.9332 73.5824C41.9327 73.5826 41.9319 73.5828 41.9319 73.5828L39.4449 72.0689C39.4449 72.0689 32.9066 72.7542 22.9656 67.074C22.1191 66.5904 21.3271 66.1003 20.5842 65.6088C20.4865 67.455 20.3709 68.8777 19.7412 70.1284C19.3283 70.9492 18.5158 72.3583 17.8348 73.5194C19.0894 74.2911 20.4676 75.0419 21.9748 75.7542C23.018 76.2468 24.0034 76.6893 24.9248 77.0798C26.7325 77.8446 28.3135 78.4198 29.7018 78.8521C36.8603 81.075 38.6806 79.3845 38.6806 79.3845Z" fill="url(#paint43_linear_106_73)"/>
<path opacity="0.6" d="M38.6806 79.3845L41.9336 73.5835C41.9336 73.5835 41.9336 73.5834 41.9332 73.5824C41.9327 73.5826 41.9319 73.5828 41.9319 73.5828L39.4449 72.0689C39.4449 72.0689 33.2875 72.714 23.8408 67.5625L23.47 67.8486C23.6282 67.9351 26.4561 70.8805 28.0621 71.6976C29.6793 72.5194 29.4034 73.275 29.2349 74.085C29.0647 74.8955 27.8104 76.8091 27.4234 77.1373C27.2727 77.2641 26.1858 77.2019 24.9248 77.0798C26.7325 77.8446 28.3135 78.4198 29.7018 78.8521C30.5855 79.1261 31.3885 79.3412 32.1161 79.5071C37.2852 80.681 38.6806 79.3845 38.6806 79.3845Z" fill="url(#paint44_linear_106_73)"/>
<path opacity="0.6" d="M38.6805 79.3845L41.9336 73.5835C41.9336 73.5835 41.9335 73.5834 41.9332 73.5824C41.9327 73.5826 41.9318 73.5828 41.9318 73.5828L39.4449 72.0689C39.4449 72.0689 38.1318 72.206 35.7832 71.8458C35.0363 74.1703 33.0889 77.626 32.1091 79.5021L32.1161 79.5071C37.2851 80.681 38.6805 79.3845 38.6805 79.3845Z" fill="url(#paint45_linear_106_73)"/>
<path opacity="0.6" d="M11.2967 56.6306C9.89299 55.4292 8.70214 54.485 8.70214 54.485C8.32609 55.3514 6.55268 59.4372 5.78674 61.3231C6.36305 62.4064 7.48195 64.2718 9.34263 66.4139C9.19297 65.5224 9.12843 64.6651 9.29507 64.1889C9.76169 62.8863 10.2784 61.0116 10.8532 60.8317C11.4326 60.6466 12.2894 61.1735 15.1788 61.5547C15.2973 61.5705 15.3934 61.5719 15.4726 61.5625C13.4106 59.5996 12.0788 57.8282 11.2967 56.6306Z" fill="url(#paint46_linear_106_73)"/>
<path d="M41.9299 73.5826C41.8874 73.584 41.1235 73.6208 39.8064 73.5302C38.3138 73.4298 36.1125 73.1681 33.4529 72.5116C29.9444 71.6458 25.6365 70.0953 21.1151 67.3239C16.1636 64.2907 12.9946 61.1359 11.0225 58.629C9.89213 57.1931 9.15506 55.9707 8.69811 55.1064C8.23974 54.2363 8.06714 53.7284 8.06714 53.7284C8.06714 53.7284 8.06997 53.7228 8.07422 53.7256L10.3844 55.0554C10.3844 55.0554 13.3794 61.5971 22.9655 67.0735C32.9068 72.755 39.4456 72.0688 39.4456 72.0688L41.9299 73.5826Z" fill="url(#paint47_linear_106_73)"/>
<path opacity="0.6" d="M39.8064 73.5302C38.3139 73.4298 36.1126 73.1681 33.4529 72.5116C29.9444 71.6458 25.6365 70.0953 21.1151 67.3239C16.1636 64.2907 12.9946 61.1359 11.0225 58.629C10.6306 56.6045 10.3845 55.0554 10.3845 55.0554C10.3845 55.0554 13.3794 61.5971 22.9656 67.0734C32.9068 72.755 39.4456 72.0688 39.4456 72.0688L39.8064 73.5302Z" fill="url(#paint48_linear_106_73)"/>
<path d="M32.2625 71.0937L33.8411 72.6054L30.0484 78.1628L33.1996 72.623L32.2625 71.0937Z" fill="url(#paint49_linear_106_73)"/>
<path d="M32.8257 72.3541L30.0484 78.1628L33.4859 72.5339L32.2625 71.0937L32.8257 72.3541Z" fill="url(#paint50_linear_106_73)"/>
<path d="M10.2402 57.5852C10.2152 57.5499 7.30182 62.3745 7.30182 62.3745L9.76556 56.8944L11.2277 57.1931L10.2402 57.5852Z" fill="url(#paint51_linear_106_73)"/>
<path d="M11.2277 57.1931L10.3845 57.7858L7.30182 62.3745L10.2402 57.5852L11.2277 57.1931Z" fill="url(#paint52_linear_106_73)"/>
<path d="M15.4957 63.9415C14.6934 63.1364 13.7786 62.4871 13.0219 63.7071C12.273 64.9145 11.2867 66.9697 11.7763 67.6411C12.266 68.3127 14.2313 70.0774 14.7396 70.1307C15.2493 70.1841 16.3665 67.689 16.9644 66.4581C17.5679 65.2154 16.852 65.3027 15.4957 63.9415Z" fill="url(#paint53_linear_106_73)"/>
<path d="M38.6803 79.385L38.9222 78.9518C36.3642 79.7485 31.434 78.5021 28.2395 77.3874C25.0532 76.2834 21.3304 75.0595 15.4813 71.1009C10.977 68.0521 7.05636 62.7861 5.39646 60.0484C5.3337 60.2163 5.29865 60.3088 5.29865 60.3088C5.29865 60.3088 5.4491 60.6793 5.78672 61.3231C6.36303 62.4064 7.48193 64.2718 9.34262 66.4139C11.2756 68.6359 14.0188 71.1809 17.8347 73.519C19.0898 74.2912 20.4674 75.0424 21.975 75.7545C23.0181 76.2466 24.0029 76.6894 24.9248 77.08C26.7322 77.8445 28.3129 78.4197 29.7015 78.8519C36.8602 81.0751 38.6803 79.385 38.6803 79.385Z" fill="url(#paint54_linear_106_73)"/>
<path d="M34.7012 72.2203L35.2587 72.914L33.442 76.3052L34.9369 72.8638L34.7012 72.2203Z" fill="url(#paint55_linear_106_73)"/>
<path d="M34.7012 72.2203L35.4329 72.9482L33.442 76.3052L35.2587 72.914L34.7012 72.2203Z" fill="url(#paint56_linear_106_73)"/>
<path d="M38.4877 5.77212C34.7835 3.26409 31.3809 7.26598 35.4715 10.7172C39.5622 14.1684 43.4327 9.12024 38.4877 5.77212Z" fill="url(#paint57_linear_106_73)"/>
<path d="M28.3789 2.79764C25.0996 1.90037 23.9814 5.35351 27.0769 7.14478C30.1723 8.93604 33.1776 4.11067 28.3789 2.79764Z" fill="url(#paint58_linear_106_73)"/>
<path d="M33.0961 19.553C28.7765 17.0439 26.8861 23.7842 31.2821 25.2113C35.6782 26.6385 37.5951 22.1664 33.0961 19.553Z" fill="url(#paint59_linear_106_73)"/>
<path d="M45.1284 14.6764C41.9771 13.3941 41.4168 16.6612 44.6215 17.2554C47.8262 17.8496 47.8052 15.7656 45.1284 14.6764Z" fill="url(#paint60_linear_106_73)"/>
<path d="M56.8085 21.5964C53.9867 19.8715 52.3523 20.8276 55.7632 23.1304C59.1741 25.4333 60.6383 23.9374 56.8085 21.5964Z" fill="url(#paint61_linear_106_73)"/>
<path d="M20.5582 7.15338C17.4065 5.06183 13.3255 10.6877 17.7379 12.2672C22.1502 13.8467 24.1432 9.53247 20.5582 7.15338Z" fill="url(#paint62_linear_106_73)"/>
<path d="M15.4527 19.6176C13.1402 18.4266 10.0243 21.5664 13.9738 23.9184C17.9234 26.2704 19.0841 21.4879 15.4527 19.6176Z" fill="url(#paint63_linear_106_73)"/>
</g>
<defs>
<linearGradient id="paint0_linear_106_73" x1="24.5763" y1="57.1333" x2="26.0618" y2="79.8395" gradientUnits="userSpaceOnUse">
<stop offset="0.0215053" stop-color="#D2E0D0"/>
<stop offset="1" stop-color="#7C9E97"/>
</linearGradient>
<linearGradient id="paint1_linear_106_73" x1="70.354" y1="39.3611" x2="61.6772" y2="49.1306" gradientUnits="userSpaceOnUse">
<stop offset="0.0752687" stop-color="#C1823F"/>
<stop offset="0.994624" stop-color="#654733"/>
</linearGradient>
<linearGradient id="paint2_linear_106_73" x1="51.4911" y1="37.4454" x2="56.001" y2="55.4794" gradientUnits="userSpaceOnUse">
<stop offset="0.143369" stop-color="#674222"/>
<stop offset="0.994624" stop-color="#482C0B"/>
</linearGradient>
<linearGradient id="paint3_linear_106_73" x1="54.9886" y1="29.0683" x2="58.6669" y2="62.4557" gradientUnits="userSpaceOnUse">
<stop offset="0.0752687" stop-color="#C1823F"/>
<stop offset="0.994624" stop-color="#654733"/>
</linearGradient>
<linearGradient id="paint4_linear_106_73" x1="54.7892" y1="29.0903" x2="58.4675" y2="62.4777" gradientUnits="userSpaceOnUse">
<stop stop-color="#B06E32" stop-opacity="0"/>
<stop offset="0.994624" stop-color="#543521"/>
</linearGradient>
<linearGradient id="paint5_linear_106_73" x1="46.9758" y1="75.3543" x2="49.1246" y2="69.1683" gradientUnits="userSpaceOnUse">
<stop offset="0.0017921" stop-color="#E9B687"/>
<stop offset="1" stop-color="#C99780"/>
</linearGradient>
<linearGradient id="paint6_linear_106_73" x1="72.8112" y1="42.6972" x2="66.0423" y2="50.4079" gradientUnits="userSpaceOnUse">
<stop offset="0.0017921" stop-color="#E9B687"/>
<stop offset="1" stop-color="#C99780"/>
</linearGradient>
<linearGradient id="paint7_linear_106_73" x1="14.6576" y1="19.2281" x2="43.4247" y2="54.1717" gradientUnits="userSpaceOnUse">
<stop offset="0.0752687" stop-color="#C1823F"/>
<stop offset="0.994624" stop-color="#654733"/>
</linearGradient>
<linearGradient id="paint8_linear_106_73" x1="27.9946" y1="28.8113" x2="41.4024" y2="58.4601" gradientUnits="userSpaceOnUse">
<stop stop-color="#B06E32" stop-opacity="0"/>
<stop offset="0.994624" stop-color="#543521"/>
</linearGradient>
<linearGradient id="paint9_linear_106_73" x1="34.3521" y1="33.3055" x2="34.3237" y2="44.5281" gradientUnits="userSpaceOnUse">
<stop offset="0.0017921" stop-color="#E9B687"/>
<stop offset="1" stop-color="#C99780"/>
</linearGradient>
<linearGradient id="paint10_linear_106_73" x1="33.9092" y1="33.3044" x2="33.8808" y2="44.527" gradientUnits="userSpaceOnUse">
<stop offset="0.0017921" stop-color="#E9B687"/>
<stop offset="1" stop-color="#C99780"/>
</linearGradient>
<linearGradient id="paint11_linear_106_73" x1="25.731" y1="51.0114" x2="26.9916" y2="56.045" gradientUnits="userSpaceOnUse">
<stop offset="0.0017921" stop-color="#E9B687"/>
<stop offset="1" stop-color="#C99780"/>
</linearGradient>
<linearGradient id="paint12_linear_106_73" x1="24.197" y1="44.6111" x2="26.1023" y2="52.2189" gradientUnits="userSpaceOnUse">
<stop offset="0.0017921" stop-color="#E9B687"/>
<stop offset="1" stop-color="#C99780"/>
</linearGradient>
<linearGradient id="paint13_linear_106_73" x1="30.3295" y1="49.8597" x2="31.5902" y2="54.8934" gradientUnits="userSpaceOnUse">
<stop offset="0.0017921" stop-color="#E9B687"/>
<stop offset="1" stop-color="#C99780"/>
</linearGradient>
<linearGradient id="paint14_linear_106_73" x1="18.7981" y1="15.1247" x2="18.8321" y2="57.8993" gradientUnits="userSpaceOnUse">
<stop offset="0.0017921" stop-color="#E9B687"/>
<stop offset="1" stop-color="#C99780"/>
</linearGradient>
<linearGradient id="paint15_linear_106_73" x1="28.1372" y1="15.1172" x2="28.1712" y2="57.8917" gradientUnits="userSpaceOnUse">
<stop offset="0.0017921" stop-color="#E9B687"/>
<stop offset="1" stop-color="#C99780"/>
</linearGradient>
<linearGradient id="paint16_linear_106_73" x1="47.6352" y1="15.1017" x2="47.6692" y2="57.8762" gradientUnits="userSpaceOnUse">
<stop offset="0.0017921" stop-color="#E9B687"/>
<stop offset="1" stop-color="#C99780"/>
</linearGradient>
<linearGradient id="paint17_linear_106_73" x1="37.0905" y1="39.0618" x2="20.8056" y2="67.7208" gradientUnits="userSpaceOnUse">
<stop offset="0.143369" stop-color="#674222"/>
<stop offset="0.994624" stop-color="#482C0B"/>
</linearGradient>
<linearGradient id="paint18_linear_106_73" x1="21.8067" y1="18.1898" x2="44.3852" y2="57.4566" gradientUnits="userSpaceOnUse">
<stop offset="0.143369" stop-color="#674222"/>
<stop offset="0.994624" stop-color="#482C0B"/>
</linearGradient>
<linearGradient id="paint19_linear_106_73" x1="58.8662" y1="60.2816" x2="42.8948" y2="48.142" gradientUnits="userSpaceOnUse">
<stop offset="0.0215053" stop-color="#D2E0D0"/>
<stop offset="1" stop-color="#7C9E97"/>
</linearGradient>
<linearGradient id="paint20_linear_106_73" x1="35.4982" y1="48.5469" x2="46.9878" y2="24.4896" gradientUnits="userSpaceOnUse">
<stop offset="0.0860217" stop-color="#674222" stop-opacity="0"/>
<stop offset="0.994624" stop-color="#482C0B"/>
</linearGradient>
<linearGradient id="paint21_linear_106_73" x1="46.9459" y1="14.5858" x2="49.3312" y2="40.0299" gradientUnits="userSpaceOnUse">
<stop offset="0.0215053" stop-color="#D2E0D0"/>
<stop offset="1" stop-color="#7C9E97"/>
</linearGradient>
<linearGradient id="paint22_linear_106_73" x1="54.5062" y1="12.3692" x2="59.0345" y2="40.1214" gradientUnits="userSpaceOnUse">
<stop stop-color="#566872" stop-opacity="0"/>
<stop offset="1" stop-color="#365255"/>
</linearGradient>
<linearGradient id="paint23_linear_106_73" x1="59.0768" y1="11.6234" x2="63.6052" y2="39.3756" gradientUnits="userSpaceOnUse">
<stop stop-color="#566872" stop-opacity="0"/>
<stop offset="1" stop-color="#365255"/>
</linearGradient>
<linearGradient id="paint24_linear_106_73" x1="64.3214" y1="10.7676" x2="68.8497" y2="38.5198" gradientUnits="userSpaceOnUse">
<stop stop-color="#566872" stop-opacity="0"/>
<stop offset="1" stop-color="#365255"/>
</linearGradient>
<linearGradient id="paint25_linear_106_73" x1="45.5161" y1="37.8035" x2="21.5966" y2="5.62622" gradientUnits="userSpaceOnUse">
<stop stop-color="#566872" stop-opacity="0"/>
<stop offset="1" stop-color="#365255"/>
</linearGradient>
<linearGradient id="paint26_linear_106_73" x1="55.2499" y1="13.018" x2="38.1688" y2="29.565" gradientUnits="userSpaceOnUse">
<stop offset="0.0215053" stop-color="#D2E0D0"/>
<stop offset="1" stop-color="#7C9E97"/>
</linearGradient>
<linearGradient id="paint27_linear_106_73" x1="67.253" y1="17.8034" x2="57.6368" y2="21.9953" gradientUnits="userSpaceOnUse">
<stop stop-color="#E0E7E1"/>
<stop offset="1" stop-color="#D2E0D0" stop-opacity="0"/>
</linearGradient>
<linearGradient id="paint28_linear_106_73" x1="45.1944" y1="23.0661" x2="52.9265" y2="15.2171" gradientUnits="userSpaceOnUse">
<stop stop-color="#566872" stop-opacity="0"/>
<stop offset="1" stop-color="#365255"/>
</linearGradient>
<linearGradient id="paint29_linear_106_73" x1="32.1565" y1="27.6767" x2="20.8294" y2="46.1513" gradientUnits="userSpaceOnUse">
<stop offset="0.0215053" stop-color="#D2E0D0"/>
<stop offset="1" stop-color="#7C9E97"/>
</linearGradient>
<linearGradient id="paint30_linear_106_73" x1="40.3199" y1="42.7527" x2="46.4855" y2="25.4516" gradientUnits="userSpaceOnUse">
<stop offset="0.0215053" stop-color="#E0EDDA"/>
<stop offset="1" stop-color="#90C4BA" stop-opacity="0"/>
</linearGradient>
<linearGradient id="paint31_linear_106_73" x1="58.3932" y1="30.3446" x2="49.6927" y2="30.3211" gradientUnits="userSpaceOnUse">
<stop stop-color="#E0E7E1"/>
<stop offset="1" stop-color="#D2E0D0" stop-opacity="0"/>
</linearGradient>
<linearGradient id="paint32_linear_106_73" x1="52.1711" y1="37.5193" x2="52.796" y2="31.9994" gradientUnits="userSpaceOnUse">
<stop stop-color="#566872" stop-opacity="0"/>
<stop offset="1" stop-color="#365255"/>
</linearGradient>
<linearGradient id="paint33_linear_106_73" x1="69.4432" y1="43.2586" x2="70.1946" y2="36.6211" gradientUnits="userSpaceOnUse">
<stop stop-color="#566872" stop-opacity="0"/>
<stop offset="1" stop-color="#365255"/>
</linearGradient>
<linearGradient id="paint34_linear_106_73" x1="73.7681" y1="33.7057" x2="68.1818" y2="34.9432" gradientUnits="userSpaceOnUse">
<stop stop-color="#E0E7E1"/>
<stop offset="1" stop-color="#D2E0D0" stop-opacity="0"/>
</linearGradient>
<linearGradient id="paint35_linear_106_73" x1="36.592" y1="31.8772" x2="36.3545" y2="26.5447" gradientUnits="userSpaceOnUse">
<stop stop-color="#566872" stop-opacity="0"/>
<stop offset="1" stop-color="#365255"/>
</linearGradient>
<linearGradient id="paint36_linear_106_73" x1="25.4604" y1="49.6278" x2="27.7558" y2="30.9106" gradientUnits="userSpaceOnUse">
<stop stop-color="#B06E32" stop-opacity="0"/>
<stop offset="0.994624" stop-color="#543521"/>
</linearGradient>
<linearGradient id="paint37_linear_106_73" x1="36.8798" y1="1.06665" x2="36.2918" y2="33.3006" gradientUnits="userSpaceOnUse">
<stop offset="0.125448" stop-color="#FCFAE1"/>
<stop offset="1" stop-color="#E8EBCA"/>
</linearGradient>
<linearGradient id="paint38_linear_106_73" x1="18.0662" y1="14.0792" x2="16.369" y2="43.9186" gradientUnits="userSpaceOnUse">
<stop offset="0.043011" stop-color="#D5D093" stop-opacity="0"/>
<stop offset="1" stop-color="#BEC480"/>
</linearGradient>
<linearGradient id="paint39_linear_106_73" x1="39.1117" y1="15.2762" x2="37.4145" y2="45.1156" gradientUnits="userSpaceOnUse">
<stop offset="0.043011" stop-color="#D5D093" stop-opacity="0"/>
<stop offset="1" stop-color="#BEC480"/>
</linearGradient>
<linearGradient id="paint40_linear_106_73" x1="19.1054" y1="7.03929" x2="17.4978" y2="29.2827" gradientUnits="userSpaceOnUse">
<stop offset="0.043011" stop-color="#D5D093" stop-opacity="0"/>
<stop offset="1" stop-color="#BEC480"/>
</linearGradient>
<linearGradient id="paint41_linear_106_73" x1="34.7888" y1="9.04737" x2="28.337" y2="20.227" gradientUnits="userSpaceOnUse">
<stop offset="0.043011" stop-color="#D5D093" stop-opacity="0"/>
<stop offset="1" stop-color="#BEC480"/>
</linearGradient>
<linearGradient id="paint42_linear_106_73" x1="23.0262" y1="60.6511" x2="24.7937" y2="79.5055" gradientUnits="userSpaceOnUse">
<stop offset="0.0215053" stop-color="#D2E0D0"/>
<stop offset="1" stop-color="#7C9E97"/>
</linearGradient>
<linearGradient id="paint43_linear_106_73" x1="27.8195" y1="60.8976" x2="30.8949" y2="79.7456" gradientUnits="userSpaceOnUse">
<stop stop-color="#566872" stop-opacity="0"/>
<stop offset="1" stop-color="#365255"/>
</linearGradient>
<linearGradient id="paint44_linear_106_73" x1="31.1215" y1="61.1885" x2="34.0726" y2="79.2745" gradientUnits="userSpaceOnUse">
<stop stop-color="#566872" stop-opacity="0"/>
<stop offset="1" stop-color="#365255"/>
</linearGradient>
<linearGradient id="paint45_linear_106_73" x1="34.7502" y1="62.6241" x2="37.3978" y2="78.8497" gradientUnits="userSpaceOnUse">
<stop stop-color="#566872" stop-opacity="0"/>
<stop offset="1" stop-color="#365255"/>
</linearGradient>
<linearGradient id="paint46_linear_106_73" x1="20.5055" y1="68.3814" x2="0.195325" y2="54.3521" gradientUnits="userSpaceOnUse">
<stop stop-color="#566872" stop-opacity="0"/>
<stop offset="1" stop-color="#365255"/>
</linearGradient>
<linearGradient id="paint47_linear_106_73" x1="24.5718" y1="57.1333" x2="26.0573" y2="79.8402" gradientUnits="userSpaceOnUse">
<stop offset="0.0215053" stop-color="#D2E0D0"/>
<stop offset="1" stop-color="#7C9E97"/>
</linearGradient>
<linearGradient id="paint48_linear_106_73" x1="23.6376" y1="77.1704" x2="24.7694" y2="67.173" gradientUnits="userSpaceOnUse">
<stop stop-color="#566872" stop-opacity="0"/>
<stop offset="1" stop-color="#365255"/>
</linearGradient>
<linearGradient id="paint49_linear_106_73" x1="36.4954" y1="74.6427" x2="28.9993" y2="74.6224" gradientUnits="userSpaceOnUse">
<stop stop-color="#E0E7E1"/>
<stop offset="1" stop-color="#D2E0D0" stop-opacity="0"/>
</linearGradient>
<linearGradient id="paint50_linear_106_73" x1="27.9494" y1="75.4511" x2="31.946" y2="74.4254" gradientUnits="userSpaceOnUse">
<stop stop-color="#566872" stop-opacity="0"/>
<stop offset="1" stop-color="#365255"/>
</linearGradient>
<linearGradient id="paint51_linear_106_73" x1="6.93865" y1="54.3386" x2="9.01357" y2="59.1958" gradientUnits="userSpaceOnUse">
<stop stop-color="#566872" stop-opacity="0"/>
<stop offset="1" stop-color="#365255"/>
</linearGradient>
<linearGradient id="paint52_linear_106_73" x1="8.54247" y1="58.3336" x2="10.1908" y2="61.6432" gradientUnits="userSpaceOnUse">
<stop offset="0.0215053" stop-color="#D2E0D0"/>
<stop offset="1" stop-color="#7C9E97"/>
</linearGradient>
<linearGradient id="paint53_linear_106_73" x1="12.1686" y1="69.4659" x2="3.58185" y2="81.5198" gradientUnits="userSpaceOnUse">
<stop offset="0.0215053" stop-color="#D2E0D0"/>
<stop offset="1" stop-color="#7C9E97"/>
</linearGradient>
<linearGradient id="paint54_linear_106_73" x1="17.5987" y1="82.2906" x2="22.717" y2="67.9281" gradientUnits="userSpaceOnUse">
<stop offset="0.0215053" stop-color="#E0EDDA"/>
<stop offset="1" stop-color="#90C4BA" stop-opacity="0"/>
</linearGradient>
<linearGradient id="paint55_linear_106_73" x1="33.6956" y1="77.9086" x2="34.2478" y2="75.1262" gradientUnits="userSpaceOnUse">
<stop stop-color="#566872" stop-opacity="0"/>
<stop offset="1" stop-color="#365255"/>
</linearGradient>
<linearGradient id="paint56_linear_106_73" x1="35.8602" y1="74.0201" x2="33.4582" y2="74.3459" gradientUnits="userSpaceOnUse">
<stop stop-color="#E0E7E1"/>
<stop offset="1" stop-color="#D2E0D0" stop-opacity="0"/>
</linearGradient>
<linearGradient id="paint57_linear_106_73" x1="39.42" y1="3.01033" x2="33.9087" y2="16.4484" gradientUnits="userSpaceOnUse">
<stop stop-color="white"/>
<stop offset="1" stop-color="#F4F6D9" stop-opacity="0"/>
</linearGradient>
<linearGradient id="paint58_linear_106_73" x1="30.369" y1="-0.701689" x2="24.8578" y2="12.7364" gradientUnits="userSpaceOnUse">
<stop stop-color="white"/>
<stop offset="1" stop-color="#F4F6D9" stop-opacity="0"/>
</linearGradient>
<linearGradient id="paint59_linear_106_73" x1="31.8599" y1="16.9883" x2="33.2239" y2="37.7528" gradientUnits="userSpaceOnUse">
<stop stop-color="white"/>
<stop offset="1" stop-color="#F4F6D9" stop-opacity="0"/>
</linearGradient>
<linearGradient id="paint60_linear_106_73" x1="46.5853" y1="13.8498" x2="41.3269" y2="19.8878" gradientUnits="userSpaceOnUse">
<stop stop-color="white"/>
<stop offset="1" stop-color="#F4F6D9" stop-opacity="0"/>
</linearGradient>
<linearGradient id="paint61_linear_106_73" x1="59.0298" y1="20.9339" x2="53.1356" y2="24.515" gradientUnits="userSpaceOnUse">
<stop stop-color="white"/>
<stop offset="1" stop-color="#F4F6D9" stop-opacity="0"/>
</linearGradient>
<linearGradient id="paint62_linear_106_73" x1="21.7839" y1="6.05173" x2="16.0921" y2="14.3586" gradientUnits="userSpaceOnUse">
<stop stop-color="white"/>
<stop offset="1" stop-color="#F4F6D9" stop-opacity="0"/>
</linearGradient>
<linearGradient id="paint63_linear_106_73" x1="14.605" y1="18.1217" x2="15.9689" y2="38.8862" gradientUnits="userSpaceOnUse">
<stop stop-color="white"/>
<stop offset="1" stop-color="#F4F6D9" stop-opacity="0"/>
</linearGradient>
<clipPath id="clip0_106_73">
<rect width="80" height="80" fill="white"/>
</clipPath>
</defs>
</svg>
