<svg width="150" height="150" viewBox="0 0 150 150" fill="none" xmlns="http://www.w3.org/2000/svg">
<g clip-path="url(#clip0_106_152)">
<path d="M138.334 106.486L133.83 107.248L37.247 123.599L21.8193 59.9914L18.6755 47.0353L40.4013 43.529L121.85 30.3798L135.058 91.3654L138.334 106.486Z" fill="url(#paint0_linear_106_152)"/>
<path opacity="0.5" d="M138.334 106.486L133.83 107.248L116.351 41.2479C116.164 40.5414 115.457 40.1074 114.745 40.2582L21.8193 59.9914L18.6755 47.0353L40.4013 43.529L121.85 30.3798L135.058 91.3654L138.334 106.486Z" fill="url(#paint1_linear_106_152)"/>
<path opacity="0.5" d="M69.8522 64.9849C52.3816 60.226 48.8801 75.2376 68.1978 79.3731C87.5155 83.5087 88.3103 70.0128 69.8522 64.9849Z" fill="url(#paint2_linear_106_152)"/>
<path opacity="0.5" d="M138.334 106.486L122.779 109.119L37.247 123.599L29.6707 92.3604L18.6755 47.0353L40.4013 43.529C41.084 43.9551 41.481 44.2118 41.481 44.2118C41.481 44.2118 44.3707 80.0447 64.3605 86.1205C84.3503 92.1963 87.5629 74.3923 111.803 87.089C122.504 92.6938 130.011 92.8923 135.058 91.3654L138.334 106.486Z" fill="url(#paint3_linear_106_152)"/>
<path opacity="0.5" d="M122.779 109.119L37.2469 123.599L29.6707 92.3604C40.2372 101.76 55.3712 103.98 75.2657 102.384C105.663 99.9445 114.219 102.072 122.779 109.119Z" fill="url(#paint4_linear_106_152)"/>
<path d="M139.636 98.7246L124.062 34.5351C123.585 32.5692 121.611 31.2584 119.65 31.6043L25.0428 48.286C24.2157 48.4319 23.5234 48.8489 23.0351 49.4298L18.6756 54.5947C19.164 54.0138 19.8563 53.5968 20.6834 53.4509L115.29 36.7692C117.252 36.4233 119.225 37.734 119.702 39.7L135.276 103.89C135.553 105.028 135.267 106.134 134.596 106.932L138.956 101.767C139.626 100.97 139.912 99.8627 139.636 98.7246Z" fill="url(#paint5_linear_106_152)"/>
<path d="M124.062 34.5351L119.702 39.7C119.225 37.734 117.252 36.4233 115.29 36.7692L119.65 31.6043C121.611 31.2584 123.585 32.5692 124.062 34.5351Z" fill="url(#paint6_linear_106_152)"/>
<path d="M149.771 101.364L129.422 17.5012C128.376 13.2037 124.055 10.3325 119.768 11.0893L15.0558 29.5522C13.4124 29.8433 12.0126 30.6213 10.9699 31.7169C9.28692 33.4767 8.53274 36.0515 9.17578 38.703L29.5281 122.566C30.5708 126.863 34.8947 129.734 39.1843 128.977L143.897 110.514C146.966 109.972 149.189 107.717 149.819 104.904C150.068 103.788 150.068 102.584 149.771 101.364ZM136.59 102.115L41.9814 118.797C40.0205 119.144 38.0438 117.831 37.5675 115.865L22.3541 53.1807C21.8778 51.2145 23.0819 49.3436 25.0427 48.9996L119.649 32.3176C121.613 31.9709 123.584 33.2808 124.063 35.247L139.274 97.9315C139.753 99.8977 138.551 101.771 136.59 102.115Z" fill="url(#paint7_linear_106_152)"/>
<path d="M149.819 104.904L125.545 22.8731C116.415 24.834 111.721 17.4642 111.721 17.4642L10.97 31.7169C12.0126 30.6213 13.4125 29.8433 15.0558 29.5522L29.8404 26.9457L119.768 11.0893C124.055 10.3325 128.376 13.2037 129.422 17.5012L147.236 90.9189L147.239 90.9295L149.771 101.364C150.068 102.584 150.068 103.788 149.819 104.904Z" fill="url(#paint8_linear_106_152)"/>
<path d="M147.236 90.9189L126.521 18.0066C125.81 15.498 123.359 13.8997 120.776 14.2595L29.8404 26.9457L119.768 11.0893C124.055 10.3325 128.376 13.2037 129.422 17.5012L147.236 90.9189Z" fill="url(#paint9_linear_106_152)"/>
<path d="M73.8917 25.3475C56.7465 27.6789 57.2341 34.9548 74.7236 32.8679C92.2131 30.7809 88.1423 23.4096 73.8917 25.3475Z" fill="url(#paint10_linear_106_152)"/>
<path d="M143.896 110.514L39.184 128.977C34.8944 129.733 30.5704 126.862 29.5278 122.565L9.17543 38.7022C8.73351 36.8763 8.95314 35.0848 9.68351 33.5738C26.7413 35.061 37.9693 32.0787 46.0934 45.2861L25.0424 48.9988C23.0815 49.3428 21.8775 51.2137 22.3538 53.1799L22.6369 54.3496L37.5671 115.864C38.0434 117.831 40.0202 119.143 41.9811 118.796L134.748 102.44L136.59 102.114C138.551 101.77 139.752 99.8969 139.273 97.9307L138.937 96.5415C141.983 94.996 144.778 93.1304 147.239 90.9287L149.771 101.363C150.816 105.66 148.183 109.757 143.896 110.514Z" fill="url(#paint11_linear_106_152)"/>
<path d="M134.748 102.44C134.735 102.445 134.719 102.448 134.703 102.451L40.3113 121.072C38.1202 121.504 35.9899 120.085 35.5427 117.894L22.6449 54.6115C22.6263 54.5215 22.6237 54.4316 22.6369 54.3495L37.5671 115.864C38.0434 117.831 40.0202 119.143 41.9811 118.796L134.748 102.44Z" fill="url(#paint12_linear_106_152)"/>
<path d="M143.897 110.514L39.1843 128.977C34.8947 129.734 30.5708 126.863 29.5281 122.566L9.17578 38.703L31.9803 120.112C32.9007 123.398 36.1077 125.498 39.4875 125.029L143.897 110.514Z" fill="url(#paint13_linear_106_152)"/>
<path d="M143.896 109.802L39.1841 128.266C34.8936 129.022 30.5715 126.151 29.5285 121.853L9.17641 37.9914C8.57291 35.5047 9.36315 33.5406 10.8294 31.7964L1.71737 41.9856C0.251154 43.7298 -0.375281 46.1494 0.228219 48.6361L20.5803 132.498C21.6233 136.796 25.9454 139.667 30.2359 138.911L134.948 120.447C136.755 120.128 138.267 119.217 139.335 117.947L148.283 107.302C147.216 108.572 145.703 109.484 143.896 109.802Z" fill="url(#paint14_linear_106_152)"/>
<path d="M1.71736 41.9856L10.8294 31.7964C9.36316 33.5406 8.57291 35.5047 9.17641 37.9914L0.228217 48.6362C-0.375279 46.1494 0.251155 43.7298 1.71736 41.9856Z" fill="url(#paint15_linear_106_152)"/>
<path d="M143.896 109.802L134.949 120.448L30.237 138.911C25.9448 139.667 21.6234 136.796 20.5808 132.499L29.5278 121.853C30.5704 126.15 34.8944 129.022 39.184 128.265L143.896 109.802Z" fill="url(#paint16_linear_106_152)"/>
<path d="M143.896 109.802L134.948 120.447L30.2359 138.911L39.1841 128.266L143.896 109.802Z" fill="url(#paint17_linear_106_152)"/>
<g opacity="0.5">
<path d="M109.974 76.6303L102.028 83.6111L98.2037 86.9719C97.7829 87.3397 97.296 87.5593 96.7932 87.6493C96.4492 87.7102 96.0973 87.7102 95.7533 87.652C94.5122 87.4508 93.3637 86.5299 93.0276 85.146L92.8291 84.3283C92.5672 83.2565 92.8927 82.1663 93.676 81.4597L100.157 75.6194H100.159C100.162 75.6168 100.162 75.6168 100.162 75.6168L91.4901 72.4492C90.4396 72.0629 89.6351 71.1711 89.3758 70.102L89.1879 69.324C88.7645 67.5854 89.8574 66.0876 91.3922 65.7701C91.4214 65.7621 91.4505 65.7568 91.4796 65.7515C91.9824 65.6642 92.5275 65.7013 93.0832 65.8944L108.693 71.3775C110.996 72.1846 111.708 75.1061 109.974 76.6303Z" fill="url(#paint18_linear_106_152)"/>
<path d="M82.0165 62.5019L81.7651 64.6428L77.8249 98.11C77.6767 99.3802 76.7346 100.373 75.467 100.595C73.3632 100.965 71.3918 99.1235 71.6405 97.0144L73.3791 82.2271L75.8296 61.4064C75.9778 60.1362 76.9198 59.1438 78.1874 58.9215C80.2938 58.5484 82.2626 60.3929 82.0165 62.5019Z" fill="url(#paint19_linear_106_152)"/>
<path d="M62.9635 92.6428C62.5375 93.3335 61.8283 93.8257 60.9973 93.9712C60.4945 94.0612 59.9494 94.0241 59.3963 93.8283L43.7834 88.3453C41.6267 87.5884 40.8673 84.9792 42.2063 83.3994C42.2936 83.2909 42.3942 83.1904 42.5053 83.0925L54.2758 72.7509C54.6939 72.3831 55.1809 72.1634 55.6836 72.0761C57.2635 71.7956 59.0206 72.8065 59.4519 74.5768L59.6504 75.3945C59.9097 76.4662 59.5869 77.5565 58.7983 78.263L52.315 84.106C52.315 84.106 52.3229 84.1086 52.3388 84.1166L60.9867 87.2762C62.0373 87.6599 62.8418 88.5543 63.1011 89.6208L63.2916 90.3988C63.4954 91.2376 63.3446 92.0209 62.9635 92.6428Z" fill="url(#paint20_linear_106_152)"/>
</g>
<path d="M114.895 68.2293L111.91 71.7779L100.14 82.1195C99.7218 82.4873 99.2349 82.707 98.7321 82.7969C97.1523 83.0748 95.3951 82.0639 94.9665 80.2936L94.768 79.4759C94.5404 78.5365 94.7574 77.5838 95.3449 76.8878L98.3272 73.3392C97.7424 74.0352 97.5227 74.9905 97.7503 75.9273L97.9488 76.745C98.3775 78.5153 100.135 79.5262 101.714 79.2483C102.217 79.1583 102.704 78.9387 103.125 78.5709L114.895 68.2293Z" fill="url(#paint21_linear_106_152)"/>
<path d="M102.101 70.7644L93.429 67.5942C92.3784 67.2105 91.574 66.3187 91.3146 65.2496L91.1267 64.4716C90.8833 63.4713 91.1426 62.5504 91.6983 61.8862L94.6807 58.3376C94.125 59.0018 93.8656 59.9227 94.1091 60.923L94.297 61.701C94.5563 62.7701 95.3607 63.6619 96.4113 64.0482L105.083 67.2158L102.101 70.7644Z" fill="url(#paint22_linear_106_152)"/>
<path d="M105.083 67.2158L102.101 70.7644L93.429 67.5942C92.3784 67.2105 91.574 66.3187 91.3146 65.2496L94.297 61.701C94.5563 62.7701 95.3608 63.6618 96.4113 64.0482L105.083 67.2158Z" fill="url(#paint23_linear_106_152)"/>
<path d="M105.084 67.2163L102.102 70.7645L93.4282 67.5952L96.4109 64.047L105.084 67.2163Z" fill="url(#paint24_linear_106_152)"/>
<path d="M114.895 68.2293L111.91 71.7779L100.14 82.1195C99.7217 82.4873 99.2348 82.707 98.732 82.7969C97.1522 83.0748 95.3951 82.0639 94.9664 80.2936L97.9487 76.745C98.3775 78.5153 100.135 79.5262 101.714 79.2483C102.217 79.1583 102.704 78.9387 103.125 78.5709L114.895 68.2293Z" fill="url(#paint25_linear_106_152)"/>
<path d="M114.894 68.2293L111.912 71.7776L100.141 82.1193L103.124 78.571L114.894 68.2293Z" fill="url(#paint26_linear_106_152)"/>
<path d="M115.201 67.9164L112.218 71.4647C112.126 71.5742 112.024 71.6788 111.912 71.7776L114.894 68.2293C115.007 68.1306 115.109 68.026 115.201 67.9164Z" fill="url(#paint27_linear_106_152)"/>
<path d="M114.895 68.2293L106.949 75.2101L103.125 78.5709C102.704 78.9387 102.217 79.1583 101.714 79.2483C101.37 79.3092 101.018 79.3092 100.674 79.251C99.4333 79.0498 98.2848 78.1289 97.9488 76.745L97.7503 75.9273C97.4883 74.8555 97.8138 73.7653 98.5971 73.0587L105.078 67.2184H105.08C105.083 67.2158 105.083 67.2158 105.083 67.2158L96.4113 64.0482C95.3607 63.6619 94.5563 62.7701 94.2969 61.701L94.1091 60.923C93.6856 59.1844 94.7785 57.6866 96.3134 57.3691C96.3425 57.3611 96.3716 57.3558 96.4007 57.3505C96.9035 57.2632 97.4486 57.3003 98.0043 57.4934L113.615 62.9765C115.917 63.7836 116.629 66.7051 114.895 68.2293Z" fill="url(#paint28_linear_106_152)"/>
<path d="M114.895 68.2293L106.949 75.2101L113.982 66.9221C110.529 66.5701 111.91 63.8577 111.91 63.8577L96.3134 57.3691C96.3425 57.3611 96.3716 57.3558 96.4007 57.3505C96.9035 57.2632 97.4487 57.3003 98.0044 57.4934L113.615 62.9765C115.917 63.7836 116.629 66.7051 114.895 68.2293Z" fill="url(#paint29_linear_106_152)"/>
<path d="M100.674 79.251C99.4333 79.0498 98.2849 78.129 97.9488 76.745L97.7503 75.9273C97.4883 74.8555 97.8138 73.7653 98.5971 73.0587L105.078 67.2184H105.08C104.959 67.3455 101.079 71.3836 99.428 73.6356C97.7926 75.8717 98.7956 78.6529 100.674 79.251Z" fill="url(#paint30_linear_106_152)"/>
<path d="M80.3894 92.1938C78.2836 92.5651 76.3126 90.7212 76.5604 88.6133L80.7508 53.0046C80.8178 52.4294 81.0476 51.9114 81.3967 51.4961L78.414 55.0444C78.0649 55.4597 77.8351 55.9776 77.7681 56.5528L73.5777 92.1615C73.3299 94.2694 75.3009 96.1133 77.4067 95.742C78.1 95.6198 78.696 95.2678 79.1178 94.7659L82.1005 91.2177C81.6787 91.7195 81.0827 92.0715 80.3894 92.1938Z" fill="url(#paint31_linear_106_152)"/>
<path d="M78.414 55.0444L81.3967 51.4961C81.0476 51.9114 80.8178 52.4294 80.7509 53.0046L77.7681 56.5528C77.8351 55.9776 78.0649 55.4597 78.414 55.0444Z" fill="url(#paint32_linear_106_152)"/>
<path d="M82.1005 91.2177L79.1178 94.7659C78.696 95.2678 78.1 95.6198 77.4067 95.742C75.3009 96.1133 73.3299 94.2694 73.5777 92.1615L76.5605 88.6133C76.3126 90.7212 78.2836 92.5651 80.3894 92.1938C81.0827 92.0715 81.6787 91.7195 82.1005 91.2177Z" fill="url(#paint33_linear_106_152)"/>
<path d="M86.9377 54.1009L86.6863 56.2418L82.746 89.709C82.5979 90.9792 81.6558 91.9715 80.3882 92.1938C78.2844 92.5643 76.313 90.7225 76.5618 88.6134L78.3003 73.8261L80.7508 53.0054C80.899 51.7352 81.841 50.7428 83.1086 50.5205C85.215 50.1474 87.1838 51.9919 86.9377 54.1009Z" fill="url(#paint34_linear_106_152)"/>
<path d="M86.9377 54.1009L86.6863 56.2418C86.4852 53.2859 85.6013 52.5344 85.6013 52.5344C83.2858 54.5508 81.7484 53.1271 81.7484 53.1271C81.4573 54.2782 79.2794 67.7424 78.3003 73.8261L80.7507 53.0054C80.8989 51.7352 81.841 50.7428 83.1086 50.5205C85.215 50.1474 87.1838 51.9919 86.9377 54.1009Z" fill="url(#paint35_linear_106_152)"/>
<path d="M63.9936 69.5808L61.0109 73.1291C60.9272 73.2286 60.836 73.323 60.7375 73.4114L63.7202 69.8631C63.8187 69.7748 63.9099 69.6804 63.9936 69.5808Z" fill="url(#paint36_linear_106_152)"/>
<path d="M63.7202 69.8631L60.7375 73.4113L54.2533 79.2533L57.236 75.7051L63.7202 69.8631Z" fill="url(#paint37_linear_106_152)"/>
<path d="M67.6386 84.5832L64.6562 88.1318C64.2275 88.6399 63.6215 88.9971 62.9335 89.1188C62.4334 89.2062 61.8882 89.1691 61.3325 88.9759L45.7223 83.4929C43.5709 82.7387 42.8061 80.1348 44.1345 78.555L47.1168 75.0063C45.7884 76.5862 46.5532 79.1901 48.7046 79.9443L64.3175 85.4273C64.8706 85.6231 65.4157 85.6602 65.9185 85.5702C66.6039 85.4485 67.2099 85.0939 67.6386 84.5832Z" fill="url(#paint38_linear_106_152)"/>
<path d="M64.3175 85.4273L61.3325 88.9759L45.7223 83.4929C43.5709 82.7387 42.8061 80.1348 44.1345 78.555L47.1168 75.0063C45.7884 76.5862 46.5532 79.1901 48.7046 79.9443L64.3175 85.4273Z" fill="url(#paint39_linear_106_152)"/>
<path d="M44.1354 78.5543L47.1181 75.0061C45.7889 76.5873 46.5527 79.19 48.7055 79.945L45.7228 83.4932C43.57 82.7382 42.8062 80.1356 44.1354 78.5543Z" fill="url(#paint40_linear_106_152)"/>
<path d="M67.8846 84.2418C67.4586 84.9325 66.7494 85.4247 65.9185 85.5702C65.4157 85.6602 64.8705 85.6231 64.3175 85.4273L48.7046 79.9443C46.5479 79.1874 45.7884 76.5782 47.1274 74.9984C47.2147 74.8899 47.3153 74.7894 47.4264 74.6915L59.197 64.3499C59.6151 63.9821 60.102 63.7624 60.6048 63.6751C62.1846 63.3946 63.9417 64.4055 64.3731 66.1758L64.5715 66.9935C64.8309 68.0652 64.508 69.1555 63.7194 69.862L57.2361 75.705C57.2361 75.705 57.2441 75.7076 57.2599 75.7156L65.9079 78.8752C66.9585 79.2589 67.7629 80.1533 68.0223 81.2198L68.2128 81.9978C68.4165 82.8366 68.2657 83.6199 67.8846 84.2418Z" fill="url(#paint41_linear_106_152)"/>
<path d="M63.7195 69.862C64.7303 67.6762 63.439 66.4378 63.439 66.4378C60.3746 66.6786 60.1761 65.0485 60.1761 65.0485L47.1274 74.9984C47.2148 74.8899 47.3153 74.7894 47.4265 74.6915L59.197 64.3499C59.6151 63.9821 60.102 63.7624 60.6048 63.6751C62.1846 63.3946 63.9418 64.4055 64.3731 66.1758L64.5716 66.9935C64.8309 68.0652 64.508 69.1555 63.7195 69.862Z" fill="url(#paint42_linear_106_152)"/>
<path d="M67.8847 84.2418C68.1202 82.9346 67.8264 81.5268 67.0114 80.7805C65.8841 79.7511 57.768 75.9537 57.2599 75.7156L65.9079 78.8752C66.9585 79.2589 67.7629 80.1534 68.0223 81.2198L68.2128 81.9978C68.4166 82.8367 68.2657 83.6199 67.8847 84.2418Z" fill="url(#paint43_linear_106_152)"/>
<path d="M97.3939 27.2916L96.1448 28.7762C95.8749 29.0964 95.4939 29.3266 95.0361 29.4086L89.7065 30.348C88.6215 30.5386 87.526 29.8135 87.264 28.7232L86.5627 25.8335C86.4093 25.2064 86.568 24.5924 86.9385 24.1505L88.1876 22.666C87.8171 23.1079 87.6583 23.7218 87.8091 24.349L88.5104 27.2387C88.775 28.329 89.8679 29.054 90.9529 28.8635L96.2851 27.9241C96.7403 27.842 97.1239 27.6118 97.3939 27.2916Z" fill="url(#paint44_linear_106_152)"/>
<path d="M86.9385 24.1515L88.1865 22.6668C87.8156 23.1082 87.657 23.7205 87.8097 24.3497L86.5616 25.8344C86.4089 25.2052 86.5675 24.5929 86.9385 24.1515Z" fill="url(#paint45_linear_106_152)"/>
<path d="M96.2849 27.9241L95.0358 29.4086L89.7063 30.3481C88.6213 30.5386 87.5258 29.8135 87.2638 28.7233L88.5102 27.2387C88.7748 28.329 89.8677 29.054 90.9527 28.8635L96.2849 27.9241Z" fill="url(#paint46_linear_106_152)"/>
<path d="M96.2839 27.9235L95.0358 29.4082L89.7056 30.3481L90.9537 28.8634L96.2839 27.9235Z" fill="url(#paint47_linear_106_152)"/>
<path d="M96.2849 27.9241L90.9527 28.8635C89.8677 29.054 88.7748 28.3289 88.5102 27.2387L87.809 24.349C87.629 23.5974 87.8883 22.8697 88.4255 22.4304C88.5367 22.3405 88.6584 22.2611 88.7907 22.1976C88.9442 22.1208 89.1136 22.0653 89.2962 22.0335L94.6257 21.0941C95.7107 20.9035 96.8062 21.6286 97.0682 22.7162L97.7562 25.5504L97.7695 25.6059C98.0341 26.6962 97.3699 27.7309 96.2849 27.9241Z" fill="url(#paint48_linear_106_152)"/>
<path d="M97.0682 22.7162L97.7562 25.5504L96.3352 23.1158C95.9277 22.4172 95.1708 21.9991 94.3637 22.0229L88.7907 22.1976C88.9442 22.1208 89.1136 22.0653 89.2962 22.0335L94.6257 21.0941C95.7107 20.9035 96.8062 21.6286 97.0682 22.7162Z" fill="url(#paint49_linear_106_152)"/>
<path d="M97.7695 25.606C98.0341 26.6962 97.3699 27.7309 96.2849 27.9241L90.9527 28.8635C89.8677 29.054 88.7748 28.329 88.5102 27.2387L87.809 24.349C87.629 23.5974 87.8883 22.8697 88.4255 22.4305C90.3599 25.5028 95.8245 26.8576 97.7562 25.5504L97.7695 25.606Z" fill="url(#paint50_linear_106_152)"/>
<path d="M109.622 25.1349L108.373 26.6195C108.103 26.9397 107.722 27.1725 107.264 27.2519L101.935 28.1914C100.85 28.3819 99.7568 27.6568 99.4921 26.5666L98.7909 23.6795C98.6374 23.0497 98.7962 22.4357 99.1667 21.9965L100.416 20.5093C100.045 20.9512 99.8864 21.5651 100.037 22.1923L100.739 25.082C101.003 26.1723 102.099 26.8973 103.184 26.7068L108.513 25.7674C108.968 25.688 109.352 25.4551 109.622 25.1349Z" fill="url(#paint51_linear_106_152)"/>
<path d="M99.1673 21.9953L100.415 20.5106C100.044 20.9519 99.8858 21.5642 100.038 22.1935L98.7904 23.6782C98.6377 23.049 98.7963 22.4366 99.1673 21.9953Z" fill="url(#paint52_linear_106_152)"/>
<g opacity="0.5">
<path d="M108.513 25.7674L107.264 27.2519L101.935 28.1914C100.85 28.3819 99.7568 27.6568 99.4922 26.5666L100.739 25.082C101.003 26.1723 102.099 26.8973 103.184 26.7068L108.513 25.7674Z" fill="url(#paint53_linear_106_152)"/>
</g>
<path d="M108.513 25.7673L107.265 27.252L101.935 28.1918L103.183 26.7071L108.513 25.7673Z" fill="url(#paint54_linear_106_152)"/>
<path d="M108.513 25.7674L103.184 26.7068C102.099 26.8973 101.003 26.1722 100.739 25.082L100.037 22.1923C99.8627 21.4725 100.098 20.7712 100.593 20.3267C100.844 20.1017 101.159 19.9403 101.524 19.8768L106.857 18.9374C107.942 18.7468 109.035 19.4746 109.299 20.5595L109.913 23.0973L109.998 23.4492C110.262 24.5395 109.598 25.5768 108.513 25.7674Z" fill="url(#paint55_linear_106_152)"/>
<path d="M109.299 20.5595L109.913 23.0973L108.648 20.893C108.222 20.1467 107.399 19.718 106.542 19.7948L100.593 20.3267C100.844 20.1017 101.159 19.9403 101.524 19.8768L106.857 18.9374C107.942 18.7468 109.035 19.4746 109.299 20.5595Z" fill="url(#paint56_linear_106_152)"/>
<path d="M109.998 23.4492C110.262 24.5395 109.598 25.5768 108.513 25.7674L103.184 26.7068C102.099 26.8973 101.003 26.1722 100.739 25.082L100.037 22.1923C99.8627 21.4725 100.098 20.7712 100.593 20.3267C101.202 20.7792 101.935 21.3931 102.787 22.224C105.359 24.7247 109.082 25.0793 109.913 23.0973L109.998 23.4492Z" fill="url(#paint57_linear_106_152)"/>
<path d="M121.85 22.9781L120.604 24.4627C120.334 24.7855 119.95 25.0157 119.493 25.0951L114.166 26.0345C113.078 26.2277 111.985 25.5 111.72 24.4097L111.019 21.5227C110.866 20.8929 111.025 20.2816 111.395 19.8396L112.644 18.3551C112.274 18.797 112.115 19.4083 112.268 20.0381L112.97 22.9252C113.231 24.0155 114.327 24.7432 115.415 24.55L120.742 23.6106C121.199 23.5312 121.58 23.301 121.85 22.9781Z" fill="url(#paint58_linear_106_152)"/>
<path d="M111.396 19.8397L112.644 18.3549C112.273 18.7963 112.115 19.4083 112.267 20.0372L111.019 21.5219C110.867 20.893 111.025 20.281 111.396 19.8397Z" fill="url(#paint59_linear_106_152)"/>
<path d="M120.742 23.6107L119.493 25.0952L114.166 26.0346C113.078 26.2278 111.985 25.5001 111.72 24.4098L112.969 22.9253C113.231 24.0156 114.327 24.7433 115.415 24.5501L120.742 23.6107Z" fill="url(#paint60_linear_106_152)"/>
<path d="M120.742 23.611L119.493 25.0957L114.166 26.0351L115.414 24.5504L120.742 23.611Z" fill="url(#paint61_linear_106_152)"/>
<path d="M120.742 23.6107L115.415 24.5501C114.327 24.7433 113.231 24.0155 112.969 22.9253L112.268 20.0382C112.049 19.1358 112.469 18.2652 113.242 17.8868C113.398 17.8101 113.57 17.7519 113.755 17.7201L119.085 16.7807C120.17 16.5901 121.263 17.3179 121.527 18.4055L122.096 20.7501L122.229 21.2925C122.493 22.3828 121.827 23.4201 120.742 23.6107Z" fill="url(#paint62_linear_106_152)"/>
<path d="M122.096 20.7501L120.736 18.6648C120.313 18.0138 119.58 17.6354 118.805 17.6672L113.242 17.8868C113.398 17.8101 113.57 17.7519 113.755 17.7201L119.085 16.7807C120.17 16.5901 121.263 17.3179 121.527 18.4055L122.096 20.7501Z" fill="url(#paint63_linear_106_152)"/>
<path d="M120.742 23.6107L115.415 24.5501C114.327 24.7433 113.231 24.0155 112.969 22.9253L112.268 20.0382C112.049 19.1359 112.469 18.2652 113.242 17.8868C113.62 19.2576 114.568 21.1867 116.976 21.9515C119.302 22.6871 121.049 21.6974 122.096 20.7501L122.229 21.2926C122.493 22.3828 121.827 23.4201 120.742 23.6107Z" fill="url(#paint64_linear_106_152)"/>
<path d="M125.061 39.3833L122.494 42.3337L125.276 40.201L126.905 39.4687L125.061 39.3833Z" fill="url(#paint65_linear_106_152)"/>
<path d="M125.331 40.4745L122.494 42.3337L125.276 40.201L126.905 39.4687L125.331 40.4745Z" fill="url(#paint66_linear_106_152)"/>
<path d="M132.348 69.3608L129.781 72.3112L132.563 70.1785L134.192 69.4462L132.348 69.3608Z" fill="url(#paint67_linear_106_152)"/>
<path d="M132.619 70.452L129.781 72.3112L132.563 70.1785L134.192 69.4462L132.619 70.452Z" fill="url(#paint68_linear_106_152)"/>
<path d="M124.421 36.7242L120.33 41.6763L124.652 37.67L126.2 36.9387L124.421 36.7242Z" fill="url(#paint69_linear_106_152)"/>
<path d="M120.33 41.6763L124.747 38.0716L126.2 36.9387L124.652 37.67L120.33 41.6763Z" fill="url(#paint70_linear_106_152)"/>
<path d="M137.126 89.2165L133.035 94.1686L137.356 90.1623L138.905 89.4311L137.126 89.2165Z" fill="url(#paint71_linear_106_152)"/>
<path d="M133.035 94.1687L137.451 90.564L138.905 89.4311L137.356 90.1623L133.035 94.1687Z" fill="url(#paint72_linear_106_152)"/>
<path d="M109.336 34.1339L106.768 38.2753L110.755 33.9011L109.888 31.6972L109.336 34.1339Z" fill="url(#paint73_linear_106_152)"/>
<path d="M111.486 33.7839L106.768 38.2753L110.755 33.9011L109.888 31.6972L111.486 33.7839Z" fill="url(#paint74_linear_106_152)"/>
<path d="M85.4671 38.342L83.8472 40.9541L86.3621 38.1952L85.8149 36.8051L85.4671 38.342Z" fill="url(#paint75_linear_106_152)"/>
<path d="M86.8233 38.1212L83.8472 40.9541L86.3621 38.1952L85.8149 36.8051L86.8233 38.1212Z" fill="url(#paint76_linear_106_152)"/>
<path d="M48.0604 44.9566L46.1455 48.0443L49.1183 44.783L48.4714 43.1398L48.0604 44.9566Z" fill="url(#paint77_linear_106_152)"/>
<path d="M49.6634 44.6956L46.1455 48.0443L49.1183 44.783L48.4714 43.1398L49.6634 44.6956Z" fill="url(#paint78_linear_106_152)"/>
<path d="M44.1666 45.6467L41.8535 49.3766L45.4446 45.437L44.6632 43.4521L44.1666 45.6467Z" fill="url(#paint79_linear_106_152)"/>
<path d="M46.1031 45.3314L41.8535 49.3766L45.4446 45.437L44.6632 43.4521L46.1031 45.3314Z" fill="url(#paint80_linear_106_152)"/>
<path d="M12.3733 51.0219L9.00287 54.8965L12.6557 52.0957L14.7953 51.134L12.3733 51.0219Z" fill="url(#paint81_linear_106_152)"/>
<path d="M12.7288 52.4549L9.00287 54.8965L12.6557 52.0957L14.7953 51.134L12.7288 52.4549Z" fill="url(#paint82_linear_106_152)"/>
<path d="M21.9431 90.3898L18.5727 94.2645L22.2255 91.4637L24.3651 90.5019L21.9431 90.3898Z" fill="url(#paint83_linear_106_152)"/>
<path d="M22.2986 91.8228L18.5727 94.2644L22.2255 91.4637L24.3651 90.5019L22.2986 91.8228Z" fill="url(#paint84_linear_106_152)"/>
<path d="M11.5337 47.5297L6.16058 54.0331L11.8361 48.7718L13.8693 47.8115L11.5337 47.5297Z" fill="url(#paint85_linear_106_152)"/>
<path d="M6.16058 54.0331L11.9607 49.2993L13.8693 47.8115L11.8361 48.7718L6.16058 54.0331Z" fill="url(#paint86_linear_106_152)"/>
<path d="M28.2183 116.465L22.8452 122.969L28.5206 117.707L30.5539 116.747L28.2183 116.465Z" fill="url(#paint87_linear_106_152)"/>
<path d="M22.8452 122.969L28.6452 118.235L30.5539 116.747L28.5206 117.707L22.8452 122.969Z" fill="url(#paint88_linear_106_152)"/>
<path d="M89.897 32.3692C90.0826 33.4626 88.1086 34.6444 85.4878 35.0089C82.867 35.3734 80.5919 34.7824 80.4062 33.689C80.2205 32.5956 82.1945 31.4138 84.8154 31.0493C87.4361 30.6848 89.7113 31.2757 89.897 32.3692Z" fill="url(#paint89_linear_106_152)"/>
<path d="M61.8999 36.5751C62.0856 37.6686 60.1115 38.8504 57.4907 39.2149C54.8699 39.5793 52.5948 38.9884 52.4091 37.895C52.2234 36.8016 54.1975 35.6198 56.8183 35.2553C59.4391 34.8908 61.7142 35.4817 61.8999 36.5751Z" fill="url(#paint90_linear_106_152)"/>
<path d="M75.8678 37.8717C75.1745 38.5262 74.2174 39.0016 72.9103 39.1786C68.9736 39.7113 67.0563 36.8734 66.1384 34.3726C65.4638 32.5336 65.329 30.8775 65.329 30.8775C65.329 30.8775 65.8633 30.851 66.7336 30.7845C68.8136 30.6254 72.8144 30.236 76.0452 29.4234C76.3782 29.3401 76.7025 29.2521 77.0157 29.159C77.0157 29.159 78.7979 35.1066 75.8678 37.8717Z" fill="url(#paint91_linear_106_152)"/>
<path d="M76.0452 29.4234C76.0843 30.9294 74.9862 33.3099 71.7075 33.382C69.0288 33.4405 67.4879 31.889 66.7336 30.7845C68.8136 30.6254 72.8144 30.236 76.0452 29.4234Z" fill="white"/>
<path d="M75.8678 37.8717C75.1745 38.5262 74.2174 39.0016 72.9103 39.1786C68.9736 39.7113 67.0563 36.8734 66.1384 34.3726C66.802 34.3417 67.5725 34.3444 68.3975 34.4156C70.4882 34.5962 72.929 35.2196 74.8713 36.8743C75.222 37.1721 75.5551 37.5034 75.8678 37.8717Z" fill="#D15D50"/>
<path d="M75.8678 37.8717C75.1745 38.5262 74.2174 39.0016 72.9103 39.1786C68.9736 39.7113 67.0563 36.8734 66.1384 34.3726C66.802 34.3417 67.5725 34.3444 68.3975 34.4156C65.3215 35.6211 71.2732 38.8973 74.8713 36.8743C75.222 37.1721 75.5551 37.5034 75.8678 37.8717Z" fill="url(#paint92_linear_106_152)"/>
<path d="M63.7188 28.9331C63.7245 30.286 62.4988 31.3925 60.981 31.4045C59.4632 31.4165 58.2282 30.3294 58.2225 28.9764C58.2168 27.6235 59.4426 26.517 60.9603 26.505C62.4781 26.493 63.7131 27.5801 63.7188 28.9331Z" fill="url(#paint93_linear_106_152)"/>
<path d="M62.8236 28.1606C62.8258 28.684 62.3516 29.1121 61.7645 29.1167C61.1773 29.1213 60.6995 28.7008 60.6973 28.1774C60.6951 27.654 61.1693 27.2259 61.7565 27.2213C62.3436 27.2167 62.8214 27.6372 62.8236 28.1606Z" fill="white"/>
<path d="M82.5103 26.2124C82.516 27.5654 81.2902 28.6719 79.7724 28.6838C78.2547 28.6958 77.0196 27.6087 77.0139 26.2558C77.0082 24.9028 78.234 23.7963 79.7518 23.7843C81.2696 23.7723 82.5046 24.8594 82.5103 26.2124Z" fill="url(#paint94_linear_106_152)"/>
<path d="M81.6151 25.4399C81.6173 25.9633 81.1431 26.3914 80.5559 26.396C79.9688 26.4006 79.491 25.9801 79.4888 25.4567C79.4866 24.9333 79.9608 24.5053 80.5479 24.5006C81.1351 24.496 81.6128 24.9165 81.6151 25.4399Z" fill="white"/>
<path d="M91.0216 30.2191C91.2073 31.3125 89.2333 32.4943 86.6125 32.8588C83.9917 33.2233 81.7166 32.6324 81.5309 31.5389C81.3452 30.4455 83.3192 29.2637 85.94 28.8992C88.5608 28.5348 90.836 29.1257 91.0216 30.2191Z" fill="#DD8F89"/>
<path d="M63.0245 34.4251C63.2102 35.5185 61.2362 36.7003 58.6154 37.0648C55.9946 37.4293 53.7195 36.8383 53.5338 35.7449C53.3481 34.6515 55.3221 33.4697 57.9429 33.1052C60.5637 32.7407 62.8388 33.3317 63.0245 34.4251Z" fill="#DD8F89"/>
</g>
<defs>
<linearGradient id="paint0_linear_106_152" x1="92.974" y1="41.6065" x2="55.3972" y2="132.902" gradientUnits="userSpaceOnUse">
<stop offset="0.121864" stop-color="#F1CA6D"/>
<stop offset="0.976703" stop-color="#E6AA48"/>
</linearGradient>
<linearGradient id="paint1_linear_106_152" x1="77.5657" y1="91.3998" x2="84.446" y2="-15.8618" gradientUnits="userSpaceOnUse">
<stop stop-color="#E2B646" stop-opacity="0"/>
<stop offset="0.976703" stop-color="#8D4121"/>
</linearGradient>
<linearGradient id="paint2_linear_106_152" x1="77.7086" y1="47.6982" x2="39.3379" y2="158.841" gradientUnits="userSpaceOnUse">
<stop stop-color="#E2B646" stop-opacity="0"/>
<stop offset="0.976703" stop-color="#8D4121"/>
</linearGradient>
<linearGradient id="paint3_linear_106_152" x1="87.3849" y1="51.0389" x2="49.0142" y2="162.182" gradientUnits="userSpaceOnUse">
<stop stop-color="#E2B646" stop-opacity="0"/>
<stop offset="0.976703" stop-color="#8D4121"/>
</linearGradient>
<linearGradient id="paint4_linear_106_152" x1="92.7448" y1="52.8893" x2="54.3741" y2="164.032" gradientUnits="userSpaceOnUse">
<stop stop-color="#E2B646" stop-opacity="0"/>
<stop offset="0.976703" stop-color="#8D4121"/>
</linearGradient>
<linearGradient id="paint5_linear_106_152" x1="18.6756" y1="69.2404" x2="139.74" y2="69.2404" gradientUnits="userSpaceOnUse">
<stop stop-color="#4C5C7D"/>
<stop offset="0.989137" stop-color="#2F4652"/>
</linearGradient>
<linearGradient id="paint6_linear_106_152" x1="117.284" y1="52.8628" x2="121.385" y2="23.3571" gradientUnits="userSpaceOnUse">
<stop stop-color="#47717B" stop-opacity="0"/>
<stop offset="0.928205" stop-color="#201717"/>
</linearGradient>
<linearGradient id="paint7_linear_106_152" x1="90.2335" y1="43.066" x2="50.0104" y2="143.888" gradientUnits="userSpaceOnUse">
<stop stop-color="#7E96C9"/>
<stop offset="0.928205" stop-color="#4E4F7B"/>
</linearGradient>
<linearGradient id="paint8_linear_106_152" x1="90.0283" y1="18.9054" x2="65.4194" y2="145.126" gradientUnits="userSpaceOnUse">
<stop stop-color="#91BAE4"/>
<stop offset="1" stop-color="#6281A1" stop-opacity="0"/>
</linearGradient>
<linearGradient id="paint9_linear_106_152" x1="127.422" y1="-8.28164" x2="90.3748" y2="55.7578" gradientUnits="userSpaceOnUse">
<stop stop-color="white"/>
<stop offset="1" stop-color="#90C9D1" stop-opacity="0"/>
</linearGradient>
<linearGradient id="paint10_linear_106_152" x1="79.5466" y1="9.58563" x2="56.4172" y2="89.1235" gradientUnits="userSpaceOnUse">
<stop stop-color="#91BAE4"/>
<stop offset="1" stop-color="#6281A1" stop-opacity="0"/>
</linearGradient>
<linearGradient id="paint11_linear_106_152" x1="62.8138" y1="105.509" x2="93.5104" y2="40.1467" gradientUnits="userSpaceOnUse">
<stop stop-color="#97CDD6" stop-opacity="0"/>
<stop offset="0.928205" stop-color="#3F4D69"/>
</linearGradient>
<linearGradient id="paint12_linear_106_152" x1="36.5517" y1="145.324" x2="72.5408" y2="88.1652" gradientUnits="userSpaceOnUse">
<stop stop-color="#91BAE4"/>
<stop offset="1" stop-color="#6281A1" stop-opacity="0"/>
</linearGradient>
<linearGradient id="paint13_linear_106_152" x1="43.4355" y1="169.243" x2="64.0762" y2="110.231" gradientUnits="userSpaceOnUse">
<stop stop-color="#91BAE4"/>
<stop offset="1" stop-color="#6281A1" stop-opacity="0"/>
</linearGradient>
<linearGradient id="paint14_linear_106_152" x1="76.838" y1="58.7651" x2="66.1212" y2="130.21" gradientUnits="userSpaceOnUse">
<stop stop-color="#4C5C7D"/>
<stop offset="0.989137" stop-color="#2F4652"/>
</linearGradient>
<linearGradient id="paint15_linear_106_152" x1="3.04732" y1="28.9779" x2="9.53065" y2="58.3513" gradientUnits="userSpaceOnUse">
<stop stop-color="#91BAE4"/>
<stop offset="1" stop-color="#6281A1" stop-opacity="0"/>
</linearGradient>
<linearGradient id="paint16_linear_106_152" x1="71.2268" y1="76.9739" x2="86.2222" y2="137.132" gradientUnits="userSpaceOnUse">
<stop stop-color="#47717B" stop-opacity="0"/>
<stop offset="0.928205" stop-color="#201717"/>
</linearGradient>
<linearGradient id="paint17_linear_106_152" x1="75.0196" y1="76.0284" x2="90.015" y2="136.187" gradientUnits="userSpaceOnUse">
<stop stop-color="#47717B" stop-opacity="0"/>
<stop offset="0.928205" stop-color="#201717"/>
</linearGradient>
<linearGradient id="paint18_linear_106_152" x1="113.734" y1="8.40692" x2="87.8003" y2="127.753" gradientUnits="userSpaceOnUse">
<stop stop-color="#E2B646" stop-opacity="0"/>
<stop offset="0.976703" stop-color="#8D4121"/>
</linearGradient>
<linearGradient id="paint19_linear_106_152" x1="93.2965" y1="3.96603" x2="67.3631" y2="123.312" gradientUnits="userSpaceOnUse">
<stop stop-color="#E2B646" stop-opacity="0"/>
<stop offset="0.976703" stop-color="#8D4121"/>
</linearGradient>
<linearGradient id="paint20_linear_106_152" x1="71.7793" y1="-0.709548" x2="45.846" y2="118.637" gradientUnits="userSpaceOnUse">
<stop stop-color="#E2B646" stop-opacity="0"/>
<stop offset="0.976703" stop-color="#8D4121"/>
</linearGradient>
<linearGradient id="paint21_linear_106_152" x1="94.6793" y1="75.5359" x2="114.895" y2="75.5359" gradientUnits="userSpaceOnUse">
<stop stop-color="#54B8E4"/>
<stop offset="1" stop-color="#3F89BF"/>
</linearGradient>
<linearGradient id="paint22_linear_106_152" x1="91.0352" y1="64.551" x2="105.083" y2="64.551" gradientUnits="userSpaceOnUse">
<stop stop-color="#54B8E4"/>
<stop offset="1" stop-color="#3F89BF"/>
</linearGradient>
<linearGradient id="paint23_linear_106_152" x1="98.5356" y1="58.0849" x2="97.874" y2="74.0947" gradientUnits="userSpaceOnUse">
<stop stop-color="#2F789E" stop-opacity="0"/>
<stop offset="1" stop-color="#273B5F"/>
</linearGradient>
<linearGradient id="paint24_linear_106_152" x1="87.898" y1="58.9922" x2="114.691" y2="78.8391" gradientUnits="userSpaceOnUse">
<stop stop-color="#2F789E" stop-opacity="0"/>
<stop offset="1" stop-color="#273B5F"/>
</linearGradient>
<linearGradient id="paint25_linear_106_152" x1="102.535" y1="68.5252" x2="108.258" y2="82.3519" gradientUnits="userSpaceOnUse">
<stop stop-color="#2F789E" stop-opacity="0"/>
<stop offset="1" stop-color="#273B5F"/>
</linearGradient>
<linearGradient id="paint26_linear_106_152" x1="105.022" y1="65.6769" x2="107.734" y2="75.9973" gradientUnits="userSpaceOnUse">
<stop stop-color="#2F789E" stop-opacity="0"/>
<stop offset="1" stop-color="#273B5F"/>
</linearGradient>
<linearGradient id="paint27_linear_106_152" x1="111.912" y1="69.847" x2="115.201" y2="69.847" gradientUnits="userSpaceOnUse">
<stop stop-color="#54B8E4"/>
<stop offset="1" stop-color="#3F89BF"/>
</linearGradient>
<linearGradient id="paint28_linear_106_152" x1="104.73" y1="64.7465" x2="96.439" y2="129.133" gradientUnits="userSpaceOnUse">
<stop stop-color="#54B8E4"/>
<stop offset="1" stop-color="#3F89BF"/>
</linearGradient>
<linearGradient id="paint29_linear_106_152" x1="110.224" y1="56.9803" x2="99.198" y2="70.9614" gradientUnits="userSpaceOnUse">
<stop stop-color="#C0E0ED"/>
<stop offset="1" stop-color="#68BDE9"/>
</linearGradient>
<linearGradient id="paint30_linear_106_152" x1="98.4149" y1="69.2639" x2="106.045" y2="76.8057" gradientUnits="userSpaceOnUse">
<stop stop-color="#C0E0ED"/>
<stop offset="1" stop-color="#68BDE9"/>
</linearGradient>
<linearGradient id="paint31_linear_106_152" x1="93.63" y1="52.8023" x2="74.9298" y2="81.2054" gradientUnits="userSpaceOnUse">
<stop stop-color="#54B8E4"/>
<stop offset="1" stop-color="#3F89BF"/>
</linearGradient>
<linearGradient id="paint32_linear_106_152" x1="79.9551" y1="50.7189" x2="78.9407" y2="59.7162" gradientUnits="userSpaceOnUse">
<stop stop-color="#C0E0ED"/>
<stop offset="1" stop-color="#68BDE9"/>
</linearGradient>
<linearGradient id="paint33_linear_106_152" x1="76.99" y1="82.7644" x2="78.4895" y2="99.1712" gradientUnits="userSpaceOnUse">
<stop stop-color="#2F789E" stop-opacity="0"/>
<stop offset="1" stop-color="#273B5F"/>
</linearGradient>
<linearGradient id="paint34_linear_106_152" x1="82.9607" y1="61.9429" x2="74.669" y2="126.335" gradientUnits="userSpaceOnUse">
<stop stop-color="#54B8E4"/>
<stop offset="1" stop-color="#3F89BF"/>
</linearGradient>
<linearGradient id="paint35_linear_106_152" x1="79.8582" y1="47.6848" x2="82.6368" y2="63.6946" gradientUnits="userSpaceOnUse">
<stop stop-color="#C0E0ED"/>
<stop offset="1" stop-color="#68BDE9"/>
</linearGradient>
<linearGradient id="paint36_linear_106_152" x1="60.7375" y1="71.4961" x2="63.9936" y2="71.4961" gradientUnits="userSpaceOnUse">
<stop stop-color="#54B8E4"/>
<stop offset="1" stop-color="#3F89BF"/>
</linearGradient>
<linearGradient id="paint37_linear_106_152" x1="64.0695" y1="62.1978" x2="62.129" y2="66.9169" gradientUnits="userSpaceOnUse">
<stop stop-color="#54B8E4"/>
<stop offset="1" stop-color="#3F89BF"/>
</linearGradient>
<linearGradient id="paint38_linear_106_152" x1="57.9767" y1="66.5228" x2="55.4628" y2="82.9958" gradientUnits="userSpaceOnUse">
<stop stop-color="#54B8E4"/>
<stop offset="1" stop-color="#3F89BF"/>
</linearGradient>
<linearGradient id="paint39_linear_106_152" x1="56.289" y1="79.29" x2="50.2607" y2="87.1759" gradientUnits="userSpaceOnUse">
<stop stop-color="#2F789E" stop-opacity="0"/>
<stop offset="1" stop-color="#273B5F"/>
</linearGradient>
<linearGradient id="paint40_linear_106_152" x1="53.8139" y1="72.0181" x2="44.7505" y2="80.8831" gradientUnits="userSpaceOnUse">
<stop stop-color="#2F789E" stop-opacity="0"/>
<stop offset="1" stop-color="#273B5F"/>
</linearGradient>
<linearGradient id="paint41_linear_106_152" x1="60.0607" y1="58.9944" x2="51.7689" y2="123.388" gradientUnits="userSpaceOnUse">
<stop stop-color="#54B8E4"/>
<stop offset="1" stop-color="#3F89BF"/>
</linearGradient>
<linearGradient id="paint42_linear_106_152" x1="60.8046" y1="62.1723" x2="53.7479" y2="75.8888" gradientUnits="userSpaceOnUse">
<stop stop-color="#C0E0ED"/>
<stop offset="1" stop-color="#68BDE9"/>
</linearGradient>
<linearGradient id="paint43_linear_106_152" x1="67.1611" y1="76.0487" x2="58.2521" y2="83.6787" gradientUnits="userSpaceOnUse">
<stop stop-color="#C0E0ED"/>
<stop offset="1" stop-color="#68BDE9"/>
</linearGradient>
<linearGradient id="paint44_linear_106_152" x1="86.5046" y1="26.5222" x2="97.3939" y2="26.5222" gradientUnits="userSpaceOnUse">
<stop offset="0.121864" stop-color="#F1CA6D"/>
<stop offset="0.976703" stop-color="#E6AA48"/>
</linearGradient>
<linearGradient id="paint45_linear_106_152" x1="86.8092" y1="22.6067" x2="90.2493" y2="32.6184" gradientUnits="userSpaceOnUse">
<stop stop-color="white"/>
<stop offset="1" stop-color="#EFEDEE" stop-opacity="0"/>
</linearGradient>
<linearGradient id="paint46_linear_106_152" x1="91.7841" y1="26.9405" x2="91.7511" y2="31.6045" gradientUnits="userSpaceOnUse">
<stop stop-color="#E2B646" stop-opacity="0"/>
<stop offset="0.976703" stop-color="#8D4121"/>
</linearGradient>
<linearGradient id="paint47_linear_106_152" x1="93.0103" y1="26.9492" x2="92.9772" y2="31.6132" gradientUnits="userSpaceOnUse">
<stop stop-color="#E2B646" stop-opacity="0"/>
<stop offset="0.976703" stop-color="#8D4121"/>
</linearGradient>
<linearGradient id="paint48_linear_106_152" x1="95.5877" y1="20.9016" x2="86.811" y2="33.6918" gradientUnits="userSpaceOnUse">
<stop offset="0.121864" stop-color="#F1CA6D"/>
<stop offset="0.976703" stop-color="#E6AA48"/>
</linearGradient>
<linearGradient id="paint49_linear_106_152" x1="92.9901" y1="18.2937" x2="93.5635" y2="29.5844" gradientUnits="userSpaceOnUse">
<stop stop-color="white"/>
<stop offset="1" stop-color="#EFEDEE" stop-opacity="0"/>
</linearGradient>
<linearGradient id="paint50_linear_106_152" x1="92.2853" y1="19.7226" x2="94.1817" y2="39.4813" gradientUnits="userSpaceOnUse">
<stop stop-color="#E2B646" stop-opacity="0"/>
<stop offset="0.976703" stop-color="#8D4121"/>
</linearGradient>
<linearGradient id="paint51_linear_106_152" x1="98.7327" y1="24.3655" x2="109.622" y2="24.3655" gradientUnits="userSpaceOnUse">
<stop offset="0.121864" stop-color="#F1CA6D"/>
<stop offset="0.976703" stop-color="#E6AA48"/>
</linearGradient>
<linearGradient id="paint52_linear_106_152" x1="98.4093" y1="18.6208" x2="101.849" y2="28.6324" gradientUnits="userSpaceOnUse">
<stop stop-color="white"/>
<stop offset="1" stop-color="#EFEDEE" stop-opacity="0"/>
</linearGradient>
<linearGradient id="paint53_linear_106_152" x1="104.148" y1="20.7631" x2="103.884" y2="30.5873" gradientUnits="userSpaceOnUse">
<stop stop-color="#E2B646" stop-opacity="0"/>
<stop offset="0.976703" stop-color="#8D4121"/>
</linearGradient>
<linearGradient id="paint54_linear_106_152" x1="105.39" y1="20.7965" x2="105.126" y2="30.6207" gradientUnits="userSpaceOnUse">
<stop stop-color="#E2B646" stop-opacity="0"/>
<stop offset="0.976703" stop-color="#8D4121"/>
</linearGradient>
<linearGradient id="paint55_linear_106_152" x1="105.799" y1="20.531" x2="101.653" y2="32.7037" gradientUnits="userSpaceOnUse">
<stop offset="0.121864" stop-color="#F1CA6D"/>
<stop offset="0.976703" stop-color="#E6AA48"/>
</linearGradient>
<linearGradient id="paint56_linear_106_152" x1="105.048" y1="17.6814" x2="105.622" y2="28.9721" gradientUnits="userSpaceOnUse">
<stop stop-color="white"/>
<stop offset="1" stop-color="#EFEDEE" stop-opacity="0"/>
</linearGradient>
<linearGradient id="paint57_linear_106_152" x1="104.607" y1="18.5399" x2="106.503" y2="38.2986" gradientUnits="userSpaceOnUse">
<stop stop-color="#E2B646" stop-opacity="0"/>
<stop offset="0.976703" stop-color="#8D4121"/>
</linearGradient>
<linearGradient id="paint58_linear_106_152" x1="110.961" y1="22.2104" x2="121.85" y2="22.2104" gradientUnits="userSpaceOnUse">
<stop offset="0.121864" stop-color="#F1CA6D"/>
<stop offset="0.976703" stop-color="#E6AA48"/>
</linearGradient>
<linearGradient id="paint59_linear_106_152" x1="110.009" y1="14.6349" x2="113.449" y2="24.6465" gradientUnits="userSpaceOnUse">
<stop stop-color="white"/>
<stop offset="1" stop-color="#EFEDEE" stop-opacity="0"/>
</linearGradient>
<linearGradient id="paint60_linear_106_152" x1="114.981" y1="20.2349" x2="117.274" y2="27.1813" gradientUnits="userSpaceOnUse">
<stop stop-color="#E2B646" stop-opacity="0"/>
<stop offset="0.976703" stop-color="#8D4121"/>
</linearGradient>
<linearGradient id="paint61_linear_106_152" x1="115.845" y1="19.9497" x2="118.138" y2="26.8961" gradientUnits="userSpaceOnUse">
<stop stop-color="#E2B646" stop-opacity="0"/>
<stop offset="0.976703" stop-color="#8D4121"/>
</linearGradient>
<linearGradient id="paint62_linear_106_152" x1="117.902" y1="18.6386" x2="112.698" y2="34.7808" gradientUnits="userSpaceOnUse">
<stop offset="0.121864" stop-color="#F1CA6D"/>
<stop offset="0.976703" stop-color="#E6AA48"/>
</linearGradient>
<linearGradient id="paint63_linear_106_152" x1="118.65" y1="13.3758" x2="116.996" y2="23.3985" gradientUnits="userSpaceOnUse">
<stop stop-color="white"/>
<stop offset="1" stop-color="#EFEDEE" stop-opacity="0"/>
</linearGradient>
<linearGradient id="paint64_linear_106_152" x1="116.931" y1="17.357" x2="118.827" y2="37.1157" gradientUnits="userSpaceOnUse">
<stop stop-color="#E2B646" stop-opacity="0"/>
<stop offset="0.976703" stop-color="#8D4121"/>
</linearGradient>
<linearGradient id="paint65_linear_106_152" x1="124.012" y1="38.0615" x2="124.53" y2="40.2001" gradientUnits="userSpaceOnUse">
<stop stop-color="#4C5C7D"/>
<stop offset="0.989137" stop-color="#2F4652"/>
</linearGradient>
<linearGradient id="paint66_linear_106_152" x1="124.796" y1="39.6421" x2="124.595" y2="42.2652" gradientUnits="userSpaceOnUse">
<stop stop-color="#91BAE4"/>
<stop offset="1" stop-color="#6281A1" stop-opacity="0"/>
</linearGradient>
<linearGradient id="paint67_linear_106_152" x1="131.299" y1="68.039" x2="131.817" y2="70.1776" gradientUnits="userSpaceOnUse">
<stop stop-color="#4C5C7D"/>
<stop offset="0.989137" stop-color="#2F4652"/>
</linearGradient>
<linearGradient id="paint68_linear_106_152" x1="132.083" y1="69.6196" x2="131.882" y2="72.2427" gradientUnits="userSpaceOnUse">
<stop stop-color="#91BAE4"/>
<stop offset="1" stop-color="#6281A1" stop-opacity="0"/>
</linearGradient>
<linearGradient id="paint69_linear_106_152" x1="124.56" y1="41.8115" x2="122.533" y2="37.893" gradientUnits="userSpaceOnUse">
<stop stop-color="#4C5C7D"/>
<stop offset="0.989137" stop-color="#2F4652"/>
</linearGradient>
<linearGradient id="paint70_linear_106_152" x1="122.958" y1="37.6048" x2="123.477" y2="40.4859" gradientUnits="userSpaceOnUse">
<stop stop-color="#91BAE4"/>
<stop offset="1" stop-color="#6281A1" stop-opacity="0"/>
</linearGradient>
<linearGradient id="paint71_linear_106_152" x1="137.265" y1="94.3038" x2="135.238" y2="90.3854" gradientUnits="userSpaceOnUse">
<stop stop-color="#4C5C7D"/>
<stop offset="0.989137" stop-color="#2F4652"/>
</linearGradient>
<linearGradient id="paint72_linear_106_152" x1="135.663" y1="90.0971" x2="136.182" y2="92.9783" gradientUnits="userSpaceOnUse">
<stop stop-color="#91BAE4"/>
<stop offset="1" stop-color="#6281A1" stop-opacity="0"/>
</linearGradient>
<linearGradient id="paint73_linear_106_152" x1="111.693" y1="38.7403" x2="108.297" y2="34.9517" gradientUnits="userSpaceOnUse">
<stop stop-color="#4C5C7D"/>
<stop offset="0.989137" stop-color="#2F4652"/>
</linearGradient>
<linearGradient id="paint74_linear_106_152" x1="111.896" y1="33.6683" x2="108.224" y2="35.0245" gradientUnits="userSpaceOnUse">
<stop stop-color="#91BAE4"/>
<stop offset="1" stop-color="#6281A1" stop-opacity="0"/>
</linearGradient>
<linearGradient id="paint75_linear_106_152" x1="86.9536" y1="41.2474" x2="84.8115" y2="38.8578" gradientUnits="userSpaceOnUse">
<stop stop-color="#4C5C7D"/>
<stop offset="0.989137" stop-color="#2F4652"/>
</linearGradient>
<linearGradient id="paint76_linear_106_152" x1="87.0816" y1="38.0483" x2="84.7658" y2="38.9037" gradientUnits="userSpaceOnUse">
<stop stop-color="#91BAE4"/>
<stop offset="1" stop-color="#6281A1" stop-opacity="0"/>
</linearGradient>
<linearGradient id="paint77_linear_106_152" x1="49.8175" y1="48.391" x2="47.2854" y2="45.5663" gradientUnits="userSpaceOnUse">
<stop stop-color="#4C5C7D"/>
<stop offset="0.989137" stop-color="#2F4652"/>
</linearGradient>
<linearGradient id="paint78_linear_106_152" x1="49.9688" y1="44.6094" x2="47.2313" y2="45.6205" gradientUnits="userSpaceOnUse">
<stop stop-color="#91BAE4"/>
<stop offset="1" stop-color="#6281A1" stop-opacity="0"/>
</linearGradient>
<linearGradient id="paint79_linear_106_152" x1="46.2892" y1="49.7953" x2="43.2305" y2="46.3832" gradientUnits="userSpaceOnUse">
<stop stop-color="#4C5C7D"/>
<stop offset="0.989137" stop-color="#2F4652"/>
</linearGradient>
<linearGradient id="paint80_linear_106_152" x1="46.472" y1="45.2273" x2="43.1651" y2="46.4487" gradientUnits="userSpaceOnUse">
<stop stop-color="#91BAE4"/>
<stop offset="1" stop-color="#6281A1" stop-opacity="0"/>
</linearGradient>
<linearGradient id="paint81_linear_106_152" x1="10.9957" y1="49.286" x2="11.6761" y2="52.0945" gradientUnits="userSpaceOnUse">
<stop stop-color="#4C5C7D"/>
<stop offset="0.989137" stop-color="#2F4652"/>
</linearGradient>
<linearGradient id="paint82_linear_106_152" x1="12.0256" y1="51.3617" x2="11.762" y2="54.8064" gradientUnits="userSpaceOnUse">
<stop stop-color="#91BAE4"/>
<stop offset="1" stop-color="#6281A1" stop-opacity="0"/>
</linearGradient>
<linearGradient id="paint83_linear_106_152" x1="20.5655" y1="88.6539" x2="21.2459" y2="91.4625" gradientUnits="userSpaceOnUse">
<stop stop-color="#4C5C7D"/>
<stop offset="0.989137" stop-color="#2F4652"/>
</linearGradient>
<linearGradient id="paint84_linear_106_152" x1="21.5955" y1="90.7296" x2="21.3318" y2="94.1744" gradientUnits="userSpaceOnUse">
<stop stop-color="#91BAE4"/>
<stop offset="1" stop-color="#6281A1" stop-opacity="0"/>
</linearGradient>
<linearGradient id="paint85_linear_106_152" x1="11.7158" y1="54.2106" x2="9.05415" y2="49.0647" gradientUnits="userSpaceOnUse">
<stop stop-color="#4C5C7D"/>
<stop offset="0.989137" stop-color="#2F4652"/>
</linearGradient>
<linearGradient id="paint86_linear_106_152" x1="9.61193" y1="48.6862" x2="10.2939" y2="52.4698" gradientUnits="userSpaceOnUse">
<stop stop-color="#91BAE4"/>
<stop offset="1" stop-color="#6281A1" stop-opacity="0"/>
</linearGradient>
<linearGradient id="paint87_linear_106_152" x1="28.4004" y1="123.146" x2="25.7387" y2="118" gradientUnits="userSpaceOnUse">
<stop stop-color="#4C5C7D"/>
<stop offset="0.989137" stop-color="#2F4652"/>
</linearGradient>
<linearGradient id="paint88_linear_106_152" x1="26.2965" y1="117.622" x2="26.9784" y2="121.405" gradientUnits="userSpaceOnUse">
<stop stop-color="#91BAE4"/>
<stop offset="1" stop-color="#6281A1" stop-opacity="0"/>
</linearGradient>
<linearGradient id="paint89_linear_106_152" x1="88.4844" y1="44.2199" x2="81.2733" y2="20.0067" gradientUnits="userSpaceOnUse">
<stop stop-color="#97CDD6" stop-opacity="0"/>
<stop offset="0.928205" stop-color="#3F4D69"/>
</linearGradient>
<linearGradient id="paint90_linear_106_152" x1="61.6176" y1="52.2212" x2="54.4065" y2="28.008" gradientUnits="userSpaceOnUse">
<stop stop-color="#97CDD6" stop-opacity="0"/>
<stop offset="0.928205" stop-color="#3F4D69"/>
</linearGradient>
<linearGradient id="paint91_linear_106_152" x1="85.895" y1="43.869" x2="75.0413" y2="35.372" gradientUnits="userSpaceOnUse">
<stop stop-color="#2F789E"/>
<stop offset="1" stop-color="#273B5F"/>
</linearGradient>
<linearGradient id="paint92_linear_106_152" x1="71.8809" y1="34.6957" x2="68.1983" y2="40.6801" gradientUnits="userSpaceOnUse">
<stop stop-color="#A03D2F" stop-opacity="0"/>
<stop offset="0.917949" stop-color="#A03D2F"/>
</linearGradient>
<linearGradient id="paint93_linear_106_152" x1="61.2849" y1="30.8752" x2="60.5622" y2="26.4582" gradientUnits="userSpaceOnUse">
<stop stop-color="#2F789E"/>
<stop offset="1" stop-color="#273B5F"/>
</linearGradient>
<linearGradient id="paint94_linear_106_152" x1="80.0199" y1="27.8096" x2="79.2972" y2="23.3926" gradientUnits="userSpaceOnUse">
<stop stop-color="#2F789E"/>
<stop offset="1" stop-color="#273B5F"/>
</linearGradient>
<clipPath id="clip0_106_152">
<rect width="150" height="150" fill="white"/>
</clipPath>
</defs>
</svg>
