<svg width="183" height="121" viewBox="0 0 183 121" fill="none" xmlns="http://www.w3.org/2000/svg">
<path d="M15 0L18.182 11.818L30 15L18.182 18.182L15 30L11.818 18.182L0 15L11.818 11.818L15 0Z" fill="#F1DFFF"/>
<path fill-rule="evenodd" clip-rule="evenodd" d="M151.29 74.1381L143.714 46L136.138 74.1381L108 81.7143L136.138 89.2904L143.714 117.429L145.019 112.582L145.392 113.965L146.541 113.656L145.636 110.293L151.29 89.2904L172.293 83.6356L175.656 84.5412L175.965 83.3917L174.582 83.0192L179.429 81.7143L151.29 74.1381ZM174.582 83.0192L171.276 82.129L170.966 83.2785L172.293 83.6356L174.582 83.0192ZM145.636 110.293L145.279 108.966L144.129 109.276L145.019 112.582L145.636 110.293ZM147.917 51.9163L147.885 51.9249L147.804 52.2258L147.286 52.0863L146.768 52.2258L146.687 51.9249L146.654 51.9163L147.286 49.5714L147.917 51.9163ZM149.18 56.606L150.442 61.2957L149.293 61.6052L148.03 56.9155L149.18 56.606ZM151.705 65.9853L152.968 70.675L151.818 70.9845L150.556 66.2949L151.705 65.9853ZM154.231 75.3647L154.862 77.7096L157.207 78.3409L156.897 79.4905L153.891 78.6809L153.081 75.6742L154.231 75.3647ZM161.896 79.6036L166.586 80.8663L166.277 82.0158L161.587 80.7531L161.896 79.6036ZM180.646 84.6865L180.655 84.6544L183 85.2857L180.655 85.9171L180.646 85.8849L180.346 85.8039L180.485 85.2857L180.346 84.7675L180.646 84.6865ZM175.965 87.1797L171.276 88.4424L170.966 87.2929L175.656 86.0302L175.965 87.1797ZM166.586 89.7051L161.896 90.9678L161.587 89.8183L166.277 88.5556L166.586 89.7051ZM157.207 92.2305L154.862 92.8619L154.231 95.2067L153.081 94.8972L153.891 91.8905L156.897 91.081L157.207 92.2305ZM152.968 99.8964L151.705 104.586L150.556 104.277L151.818 99.5869L152.968 99.8964ZM150.442 109.276L149.18 113.965L148.03 113.656L149.293 108.966L150.442 109.276ZM147.885 118.646L147.917 118.655L147.286 121L146.654 118.655L146.687 118.646L146.768 118.346L147.286 118.485L147.804 118.346L147.885 118.646ZM142.866 104.586L141.604 99.8964L142.753 99.5869L144.016 104.277L142.866 104.586ZM140.341 95.2067L139.71 92.8619L137.365 92.2305L137.674 91.081L140.681 91.8905L141.49 94.8972L140.341 95.2067ZM132.675 90.9678L127.985 89.7051L128.295 88.5556L132.985 89.8183L132.675 90.9678ZM123.296 88.4424L118.606 87.1797L118.915 86.0302L123.605 87.2929L123.296 88.4424ZM113.925 85.8849L113.916 85.9171L111.571 85.2857L113.916 84.6544L113.925 84.6865L114.226 84.7675L114.086 85.2857L114.226 85.8039L113.925 85.8849ZM118.606 83.3917L123.296 82.129L123.605 83.2785L118.915 84.5412L118.606 83.3917ZM127.985 80.8663L132.675 79.6036L132.985 80.7531L128.295 82.0158L127.985 80.8663ZM137.365 78.3409L139.71 77.7096L140.341 75.3647L141.49 75.6742L140.681 78.6809L137.674 79.4905L137.365 78.3409ZM141.604 70.675L142.866 65.9853L144.016 66.2949L142.753 70.9845L141.604 70.675ZM144.129 61.2957L145.392 56.606L146.541 56.9155L145.279 61.6052L144.129 61.2957Z" fill="#DFF2FF"/>
</svg>
